<svg xmlns="http://www.w3.org/2000/svg" width="500" height="800" viewBox="0 0 132.292 211.667"><path d="M39.29 212.143c-.877.972 4.436-11.544 6.124-13.38 1.688-1.838 3.181-3.308 3.856-4.026 2.153-2.292.75-5.238-2.456-6.846-1.554-.78-9.913-5.48-17.331-12.79-9.738-9.595-18.66-22.693-19.195-23.575-.942-1.554-6.532-10.718-7.405-12.23-1.814-3.141 1.75-11.287 6.696-9.086 0 0 2.121.493 4.551 1.63 4.408 2.065 10.304 4.553 11.952 5.271 5.785 2.524 13.81 6.779 21.862 14.597 7.135 6.928 15.157 19.143 15.98 20.522 1.752 2.934 3.62 5.902 4.15 6.596.531.693 1.539 2.073 2.24 3.066.232.329.723.48 1.342.529 1.318.1 3.218-.278 4.45-.463 2.881-.432 2.84-.57 2.641-1.91-.487-3.274-.222-9.896-.337-13.958-.033-1.217-.139-3.549.06-5.204.1-.818-.312-7.728.339-14.052.667-6.48 2.398-12.379 2.624-13.221.523-1.94 1.08-4.006 1.072-4.138.652-2.784 6.234-11.505 9.913-15.06 2.74-2.646 11.52.103 13.105 6.068 0 0 4.78 13.502 4.364 26.23-.171 5.248-.466 11.995-.424 13.915.026.982.035.501.026.982-.009.763-.492 4.376-.55 4.9-.216 1.926-3.196 11.71-3.895 13.088-2.059 4.058-4.266 8.921-2.815 13.033 2.135 6.05 10.88 16.892 10.768 19.465 0 0-1.124-.057-9.47.03-7.161.074-16.166.407-24.726.068-10.163-.401-18.924.892-27.374.787-2.862.199-9.18-.59-12.138-.838z" fill="#7c7c7c" paint-order="fill markers stroke"/><path d="M86.401 181.868c-.877-6.372-2.537-21.175-.338-32.627.506-2.813 2.703-12.074 5.628-17.416 2.29-4.182 5.646-4.533 6.92-4.398 1.398.152 1.655 12.49 1.749 17.371.051 2.781-.161 19.78-1.836 24.897-1.329 4.058-2.29 7.866-3.142 10.96-.473 1.718-.7 3.438-1.205 4.513M54.414 188.37c-5.025-3.358-16.877-10.728-23.886-18.6-2.199-1.75-15.404-16.82-17.307-21.911-1.49-3.986-1.049-7.115-.15-7.824.649-.51 10.212 4.048 17.095 9.21 3.592 2.694 6.733 5.344 8.068 6.108 2.282 1.304 13.134 13.473 15.668 17.648 2.009 3.311 3.693 6.617 5.327 9.042.907 1.346 1.97 2.541 2.406 3.513" fill="#fff"/><path d="M20.168 118.146a65.39 65.39 0 0 1-.807-1.377 34.005 34.005 0 0 0-.653-1.104c-1.59-2.996-3.652-5.446-3.843-8.487.025-.085-.019-.34-.03-.574-.112-5.095 6.242-7.454 8.57-5.035.497.522 1.063 1.099 1.36 1.777.497 1.212.464 1.175.81.905 1.314-.754 2.32-1.173 3.638-1.12.858.04 1.073.096 1.811.472 1.74 1.003 2.705 3.237 2.805 4.27.101 1.062-.236 2.672-.773 3.687-2.36 4.04-7.619 5.209-11.346 7.035-.49.24-.924.429-.962.418-.038-.009-.299-.4-.58-.866z" fill="#d44250"/><path d="M25.063 86.145a76.75 76.75 0 0 1-.79-1.7c-.158-.36-.446-.973-.64-1.363-1.524-3.68-3.662-6.773-3.546-10.35.039-.095.017-.398.03-.673.436-5.969 8.126-8.018 10.577-4.931.524.666 1.12 1.403 1.392 2.23.447 1.47.412 1.423.847 1.147 1.62-.735 2.843-1.112 4.377-.905 1 .143 1.243.233 2.065.754 1.922 1.367 2.8 4.086 2.802 5.305 0 1.252-.574 3.097-1.314 4.224-3.208 4.46-9.486 5.24-14.046 6.958-.601.227-1.129.398-1.172.382-.044-.014-.305-.5-.58-1.077zM47.435 110.1a65.434 65.434 0 0 1-.807-1.377 34.051 34.051 0 0 0-.653-1.103c-1.59-2.996-3.652-5.446-3.843-8.488.025-.084-.019-.34-.03-.573-.112-5.095 6.242-7.454 8.57-5.035.497.522 1.063 1.099 1.36 1.777.497 1.211.464 1.174.81.905 1.314-.754 2.32-1.173 3.638-1.121.858.04 1.073.096 1.811.472 1.74 1.004 2.705 3.238 2.805 4.27.101 1.063-.236 2.673-.773 3.688-2.36 4.04-7.619 5.209-11.346 7.035-.49.24-.924.428-.962.418-.038-.01-.299-.4-.58-.866z" fill="#98232e"/><path d="M75.369 98.279c-.11-.252-.251-.587-.314-.744a17.384 17.384 0 0 0-.255-.596c-.599-1.607-1.47-2.971-1.365-4.509.018-.04.012-.171.022-.29.28-2.561 3.621-3.324 4.628-1.958.216.295.46.621.565.981.17.64.155.62.347.507.708-.291 1.24-.435 1.897-.322.428.077.532.12.877.357.806.617 1.142 1.801 1.124 2.326-.02.539-.295 1.323-.63 1.797-1.45 1.87-4.164 2.108-6.153 2.777-.262.089-.491.154-.51.147-.018-.007-.123-.22-.233-.473z" fill="#d44250"/><path d="M86.302 83.51a59.157 59.157 0 0 1-.61-1.31c-.121-.277-.344-.75-.493-1.05-1.175-2.837-2.823-5.222-2.733-7.979.03-.074.01-.308.022-.52.336-4.6 6.265-6.18 8.154-3.8.404.513.864 1.081 1.073 1.718.344 1.134.317 1.098.653.885 1.249-.567 2.192-.858 3.374-.698.77.11.958.18 1.592.582 1.481 1.053 2.159 3.15 2.16 4.089 0 .965-.442 2.387-1.013 3.256-2.473 3.438-7.313 4.039-10.828 5.364-.463.174-.87.307-.903.294-.034-.012-.235-.386-.448-.83z" fill="#98232e"/><path d="M53.859 84.588c-.14-.32-.319-.744-.398-.944-.08-.199-.225-.54-.323-.756-.76-2.039-1.867-3.77-1.733-5.72.023-.052.016-.218.029-.368.355-3.25 4.594-4.218 5.872-2.485.273.374.584.788.716 1.245.215.812.197.785.44.643.899-.37 1.574-.552 2.407-.408.543.097.675.151 1.113.452 1.023.784 1.45 2.286 1.426 2.951-.024.684-.374 1.68-.8 2.28-1.84 2.373-5.282 2.675-7.806 3.525-.332.111-.623.195-.647.185-.024-.009-.156-.28-.296-.6zM68.437 126.757a65.377 65.377 0 0 1-.807-1.378 33.983 33.983 0 0 0-.654-1.103c-1.59-2.996-3.651-5.446-3.842-8.488.025-.084-.019-.34-.03-.573-.112-5.095 6.242-7.454 8.57-5.035.497.522 1.062 1.098 1.36 1.777.497 1.211.463 1.174.81.905 1.314-.754 2.32-1.173 3.637-1.121.86.04 1.073.096 1.812.472 1.74 1.004 2.705 3.238 2.804 4.27.102 1.063-.235 2.673-.772 3.688-2.36 4.04-7.62 5.209-11.346 7.035-.491.24-.924.428-.962.418-.039-.01-.3-.4-.58-.866zM62.132 53.598a65.327 65.327 0 0 1-.806-1.378 33.912 33.912 0 0 0-.654-1.103c-1.59-2.996-3.651-5.446-3.842-8.487.025-.085-.02-.34-.03-.574-.113-5.095 6.242-7.454 8.569-5.035.498.522 1.063 1.099 1.36 1.777.498 1.212.464 1.174.811.905 1.314-.754 2.32-1.173 3.637-1.121.859.04 1.073.096 1.812.473 1.74 1.003 2.704 3.237 2.804 4.27.102 1.062-.236 2.672-.773 3.687-2.359 4.04-7.618 5.209-11.345 7.035-.491.24-.924.428-.963.418-.038-.009-.298-.4-.579-.866zM91.285 52.27c-.11-.252-.251-.586-.314-.743a17.403 17.403 0 0 0-.255-.597c-.599-1.606-1.47-2.97-1.365-4.508.017-.04.012-.171.022-.29.28-2.561 3.621-3.324 4.628-1.958.215.294.46.621.565.98.17.64.155.62.347.508.708-.292 1.24-.435 1.897-.322.428.077.531.12.877.356.806.618 1.142 1.802 1.124 2.326-.02.54-.295 1.324-.631 1.798-1.45 1.87-4.163 2.108-6.152 2.777-.262.088-.491.154-.51.146-.019-.007-.123-.22-.233-.472z" fill="#d44250"/><path d="M41.02 60.398a51.288 51.288 0 0 1-.527-1.135c-.106-.24-.298-.649-.428-.909-1.017-2.455-2.443-4.519-2.366-6.906.026-.064.011-.266.02-.45.29-3.982 5.423-5.35 7.058-3.29.35.445.748.937.929 1.488.298.982.274.95.565.766 1.08-.49 1.897-.742 2.92-.604.667.096.83.155 1.378.503 1.282.912 1.869 2.727 1.87 3.54 0 .836-.383 2.066-.877 2.818-2.14 2.976-6.33 3.496-9.373 4.644-.4.15-.752.265-.781.254-.03-.009-.204-.334-.388-.718z" fill="#98232e"/><path d="M116.042 69.934a65.317 65.317 0 0 1-.807-1.377 33.987 33.987 0 0 0-.653-1.104c-1.59-2.996-3.652-5.445-3.842-8.487.025-.085-.02-.34-.03-.574-.113-5.095 6.242-7.454 8.569-5.035.498.522 1.063 1.099 1.36 1.777.498 1.212.464 1.175.81.905 1.315-.754 2.321-1.173 3.638-1.12.859.04 1.073.096 1.812.472 1.74 1.003 2.704 3.237 2.804 4.27.102 1.062-.236 2.672-.773 3.687-2.359 4.04-7.618 5.209-11.345 7.035-.491.24-.924.429-.963.418-.038-.009-.298-.4-.579-.866z" fill="#d44250"/><path d="M109.82 103.372a59.087 59.087 0 0 1-.608-1.31 31.12 31.12 0 0 0-.494-1.051c-1.175-2.836-2.823-5.22-2.733-7.978.03-.074.01-.308.022-.52.336-4.6 6.265-6.18 8.154-3.8.404.512.864 1.08 1.073 1.718.344 1.134.317 1.098.653.885 1.249-.567 2.192-.858 3.374-.698.77.11.959.18 1.592.581 1.481 1.054 2.159 3.15 2.16 4.09 0 .965-.442 2.387-1.013 3.256-2.473 3.438-7.313 4.039-10.828 5.364-.463.174-.87.307-.903.294-.034-.01-.235-.386-.448-.83zM84.528 19.544a59.121 59.121 0 0 1-.609-1.31 30.73 30.73 0 0 0-.494-1.051c-1.175-2.837-2.822-5.221-2.733-7.978.03-.074.01-.308.023-.52.336-4.601 6.264-6.18 8.154-3.801.403.513.863 1.082 1.073 1.718.344 1.135.317 1.098.652.885 1.249-.566 2.192-.857 3.374-.697.77.11.959.18 1.592.581 1.482 1.054 2.16 3.15 2.16 4.09 0 .965-.442 2.387-1.013 3.256-2.473 3.437-7.313 4.038-10.828 5.364-.463.174-.87.306-.903.294-.034-.013-.235-.386-.447-.83z" fill="#98232e"/><path d="M113.573 33.256a65.269 65.269 0 0 1-.807-1.378 34.008 34.008 0 0 0-.653-1.103c-1.59-2.996-3.652-5.446-3.843-8.488.025-.084-.019-.34-.03-.573-.112-5.096 6.242-7.455 8.57-5.036.497.523 1.063 1.1 1.36 1.778.497 1.211.464 1.174.81.905 1.314-.754 2.32-1.173 3.638-1.121.858.04 1.073.096 1.811.472 1.74 1.004 2.705 3.238 2.805 4.27.101 1.062-.236 2.673-.773 3.688-2.36 4.04-7.619 5.208-11.346 7.034-.49.24-.924.429-.962.419-.038-.01-.299-.4-.58-.866zM62.153 23.361c-.11-.252-.251-.587-.314-.744a17.414 17.414 0 0 0-.255-.596c-.599-1.607-1.47-2.97-1.366-4.508.018-.041.013-.172.023-.29.28-2.561 3.621-3.325 4.628-1.958.215.294.46.62.565.98.17.64.155.62.346.508.709-.292 1.241-.435 1.898-.322.428.077.531.119.877.356.806.618 1.142 1.802 1.124 2.326-.02.539-.295 1.324-.631 1.797-1.45 1.87-4.163 2.109-6.152 2.778-.262.088-.492.154-.51.146-.019-.007-.123-.22-.233-.472zM32.356 34.545c-.14-.32-.318-.745-.398-.944-.08-.2-.225-.54-.323-.757-.76-2.038-1.867-3.77-1.733-5.72.023-.052.016-.217.029-.367.355-3.25 4.594-4.219 5.872-2.485.273.374.584.788.716 1.244.215.812.197.786.44.644.899-.37 1.574-.552 2.407-.409.543.098.675.152 1.113.453 1.023.783 1.45 2.285 1.426 2.95-.024.684-.374 1.68-.8 2.281-1.84 2.372-5.282 2.675-7.806 3.524-.332.112-.623.195-.647.186-.024-.01-.156-.28-.296-.6z" fill="#d44250"/></svg>