<?xml version="1.0" encoding="UTF-8" standalone="no"?>
<!-- Created with Inkscape (http://www.inkscape.org/) -->

<svg
   xmlns:dc="http://purl.org/dc/elements/1.1/"
   xmlns:cc="http://creativecommons.org/ns#"
   xmlns:rdf="http://www.w3.org/1999/02/22-rdf-syntax-ns#"
   xmlns:svg="http://www.w3.org/2000/svg"
   xmlns="http://www.w3.org/2000/svg"
   xmlns:sodipodi="http://sodipodi.sourceforge.net/DTD/sodipodi-0.dtd"
   xmlns:inkscape="http://www.inkscape.org/namespaces/inkscape"
   width="100"
   height="100"
   viewBox="0 0 26.458333 26.458333"
   version="1.1"
   id="svg1100"
   inkscape:version="0.92.3 (2405546, 2018-03-11)"
   sodipodi:docname="five-languages-support-icon.svg">
  <defs
     id="defs1094">
    <pattern
       y="0"
       x="0"
       height="6"
       width="6"
       patternUnits="userSpaceOnUse"
       id="EMFhbasepattern" />
  </defs>
  <sodipodi:namedview
     id="base"
     pagecolor="#ffffff"
     bordercolor="#666666"
     borderopacity="1.0"
     inkscape:pageopacity="0.0"
     inkscape:pageshadow="2"
     inkscape:zoom="2.8"
     inkscape:cx="69.192441"
     inkscape:cy="9.2098994"
     inkscape:document-units="mm"
     inkscape:current-layer="layer1"
     showgrid="false"
     units="px"
     inkscape:window-width="1920"
     inkscape:window-height="1001"
     inkscape:window-x="-9"
     inkscape:window-y="-9"
     inkscape:window-maximized="1" />
  <metadata
     id="metadata1097">
    <rdf:RDF>
      <cc:Work
         rdf:about="">
        <dc:format>image/svg+xml</dc:format>
        <dc:type
           rdf:resource="http://purl.org/dc/dcmitype/StillImage" />
        <dc:title />
      </cc:Work>
    </rdf:RDF>
  </metadata>
  <g
     inkscape:label="Layer 1"
     inkscape:groupmode="layer"
     id="layer1"
     transform="translate(0,-270.54167)">
    <path
       id="path101"
       d="m 18.599341,291.53896 1.145194,-1.72702 0.347866,0.23398 -0.449455,0.67723 0.680342,0.45256 0.452539,-0.67726 0.347866,0.23088 -1.145195,1.72395 -0.347868,-0.23089 0.498714,-0.75422 -0.680345,-0.45254 -0.50179,0.75424 z"
       style="fill:#4d4d4d;fill-opacity:1;fill-rule:nonzero;stroke:none;stroke-width:0.03848124"
       inkscape:connector-curvature="0" />
    <path
       id="path103"
       d="m 21.160632,291.98844 -0.264746,-0.25553 c 0.11391,-0.0985 0.230884,-0.14788 0.350948,-0.15066 0.12314,-0.003 0.264747,0.0492 0.424826,0.15689 0.147765,0.0954 0.24628,0.18779 0.295536,0.27089 0.04927,0.0833 0.07079,0.16018 0.06156,0.23397 -0.0033,0.0741 -0.05541,0.18163 -0.150847,0.32325 l -0.258592,0.38482 c -0.07389,0.11082 -0.12314,0.19393 -0.147765,0.25242 -0.02154,0.0585 -0.04,0.12936 -0.04925,0.20625 l -0.326318,-0.21549 c 0.0062,-0.0277 0.01541,-0.0679 0.0308,-0.12001 0.0092,-0.0216 0.0123,-0.037 0.01541,-0.0462 -0.09235,0.0185 -0.181627,0.0185 -0.264746,0.003 -0.08006,-0.0147 -0.160094,-0.0462 -0.230884,-0.0954 -0.129305,-0.0861 -0.206259,-0.18779 -0.237047,-0.30783 -0.02771,-0.11705 -0.0033,-0.2309 0.06774,-0.33556 0.04618,-0.0707 0.104663,-0.12313 0.17547,-0.1569 0.07081,-0.0308 0.144682,-0.0431 0.224727,-0.0308 0.08006,0.01 0.184712,0.0431 0.314008,0.0954 0.17547,0.0739 0.29861,0.11705 0.37557,0.13246 l 0.02156,-0.0339 c 0.0431,-0.0616 0.05541,-0.11706 0.0431,-0.16616 -0.0123,-0.0461 -0.06466,-0.0985 -0.15083,-0.1569 -0.05848,-0.0398 -0.110812,-0.0585 -0.160094,-0.0553 -0.04927,0 -0.101581,0.0216 -0.160093,0.0679 z m 0.264753,0.56027 c -0.05233,-0.0131 -0.13237,-0.0398 -0.237043,-0.0831 -0.104663,-0.0398 -0.17547,-0.0615 -0.218572,-0.0615 -0.06156,0.003 -0.110844,0.0277 -0.141616,0.0739 -0.03081,0.0462 -0.04,0.0985 -0.02771,0.15394 0.0123,0.0553 0.04618,0.10165 0.0985,0.13854 0.05848,0.04 0.129304,0.0584 0.209338,0.0553 0.06156,-0.003 0.110811,-0.0244 0.15083,-0.0585 0.02771,-0.0216 0.06774,-0.0739 0.120074,-0.15378 z"
       style="fill:#4d4d4d;fill-opacity:1;fill-rule:nonzero;stroke:none;stroke-width:0.03848124"
       inkscape:connector-curvature="0" />
    <path
       id="path105"
       d="m 21.67782,293.58 1.145192,-1.72395 0.329394,0.22166 -1.145191,1.72394 z"
       style="fill:#4d4d4d;fill-opacity:1;fill-rule:nonzero;stroke:none;stroke-width:0.03848124"
       inkscape:connector-curvature="0" />
    <path
       id="path107"
       d="m 22.345849,294.02637 1.145194,-1.72392 0.329398,0.21854 -1.145197,1.72397 z"
       style="fill:#4d4d4d;fill-opacity:1;fill-rule:nonzero;stroke:none;stroke-width:0.03848124"
       inkscape:connector-curvature="0" />
    <path
       id="path109"
       d="m 23.361745,293.77701 c 0.07389,-0.11083 0.172405,-0.20008 0.295533,-0.26472 0.120074,-0.0679 0.249359,-0.0954 0.38481,-0.0831 0.135452,0.0131 0.264751,0.0584 0.384811,0.13853 0.190863,0.12624 0.304768,0.28938 0.341711,0.49256 0.04,0.20318 0,0.39713 -0.126222,0.58491 -0.126222,0.19087 -0.289381,0.30476 -0.49564,0.35094 -0.203179,0.0431 -0.397121,0.003 -0.581829,-0.12017 -0.116992,-0.0769 -0.20934,-0.1754 -0.277064,-0.29553 -0.07081,-0.12001 -0.0985,-0.24936 -0.0862,-0.38481 0.0123,-0.13559 0.06466,-0.27707 0.160093,-0.41869 z m 0.329396,0.24013 c -0.08312,0.12624 -0.116992,0.24012 -0.101581,0.34478 0.01541,0.10476 0.06464,0.18474 0.150831,0.24322 0.0862,0.0585 0.181632,0.0708 0.283223,0.0462 0.101581,-0.0277 0.193944,-0.1046 0.277061,-0.23089 0.08312,-0.12001 0.116992,-0.23395 0.101581,-0.33863 -0.01541,-0.10476 -0.06466,-0.1878 -0.15083,-0.2432 -0.0862,-0.0585 -0.181633,-0.0739 -0.283224,-0.0462 -0.104663,0.0277 -0.197022,0.10165 -0.277064,0.22472 z"
       style="fill:#4d4d4d;fill-opacity:1;fill-rule:nonzero;stroke:none;stroke-width:0.03848124"
       inkscape:connector-curvature="0" />
    <path
       id="path111"
       d="m 24.867122,295.08538 0.54489,-0.95741 0.252435,-0.38173 0.261671,0.17232 -0.252439,0.38173 -0.668025,0.87428 z m -0.338631,0.39097 0.160094,-0.2432 0.243199,0.16312 -0.160093,0.24012 z"
       style="fill:#4d4d4d;fill-opacity:1;fill-rule:nonzero;stroke:none;stroke-width:0.03848124"
       inkscape:connector-curvature="0" />
    <path
       id="path113"
       d="m 1.465791,293.40198 1.3976423,1.65789 -0.386034,0.29463 -1.1271952,-1.33547 -0.57282216,0.43206 1.12429976,1.33581 -0.3868069,0.29173 -1.39764825,-1.6579 z"
       style="fill:#821c1c;fill-opacity:1;fill-rule:nonzero;stroke:none;stroke-width:0.03691455"
       inkscape:connector-curvature="0" />
    <path
       id="path115"
       d="m 3.4392607,294.3321 0.5490914,0.65294 -0.3590264,0.27317 -1.4498934,-1.71781 0.3618994,-0.27353 0.1546253,0.18296 c -0.012105,-0.11004 -0.00205,-0.20472 0.03011,-0.28399 0.031415,-0.0821 0.084067,-0.15208 0.1642375,-0.20978 0.1385025,-0.10691 0.3051032,-0.13101 0.4967398,-0.0755 0.1935038,0.0515 0.3706136,0.17449 0.5313215,0.36878 0.1627811,0.19098 0.250856,0.3821 0.2633969,0.57046 0.013333,0.19124 -0.051305,0.33784 -0.1902489,0.44232 -0.07899,0.0611 -0.1623587,0.0952 -0.2521019,0.10625 -0.089708,0.0106 -0.1886365,-8.4e-4 -0.2996968,-0.0359 z m -0.4396171,-0.98585 c -0.076715,0.0579 -0.1103617,0.13366 -0.098968,0.22911 0.010241,0.0922 0.065727,0.19687 0.166504,0.31411 0.097936,0.1177 0.1962302,0.19293 0.2891775,0.22672 0.095012,0.0305 0.1809611,0.0172 0.2571419,-0.044 0.076763,-0.0579 0.1103617,-0.13366 0.096758,-0.22596 -0.01025,-0.0922 -0.066521,-0.19979 -0.1643975,-0.31737 -0.1008178,-0.11736 -0.1962125,-0.1929 -0.2912765,-0.22345 -0.092964,-0.0339 -0.1789962,-0.02 -0.2549636,0.041 z"
       style="fill:#821c1c;fill-opacity:1;fill-rule:nonzero;stroke:none;stroke-width:0.03691455"
       inkscape:connector-curvature="0" />
    <path
       id="path117"
       d="m 4.7599604,291.58989 1.0488233,1.24561 -0.3590213,0.27316 -0.5580478,-0.66387 0.1932311,0.93774 -0.3740081,0.28406 -1.0488299,-1.24562 0.3590254,-0.27317 0.5580727,0.6639 -0.1932373,-0.93776 z"
       style="fill:#821c1c;fill-opacity:1;fill-rule:nonzero;stroke:none;stroke-width:0.03691455"
       inkscape:connector-curvature="0" />
    <path
       id="path119"
       d="m 6.0342964,291.39421 c 0.043087,-0.029 0.067304,-0.0617 0.072057,-0.0988 0.00576,-0.0338 -0.00756,-0.0714 -0.038175,-0.10687 -0.031362,-0.0383 -0.063814,-0.0586 -0.1030535,-0.0598 -0.036675,-0.002 -0.074435,0.0122 -0.1164084,0.0445 l -0.1717311,0.12662 0.1896951,0.22386 z m 0.4587826,0.51934 c 0.050687,-0.0429 0.083027,-0.0818 0.091445,-0.12559 0.00625,-0.0428 -0.00931,-0.0892 -0.049038,-0.13574 -0.039577,-0.0464 -0.082302,-0.0713 -0.1280181,-0.0747 -0.045341,-10e-4 -0.096577,0.0183 -0.1489027,0.0573 l -0.1837827,0.13722 0.2345494,0.27861 z m -1.3832709,-0.58665 0.5157891,-0.38892 c 0.1680139,-0.12922 0.3124355,-0.19198 0.4305009,-0.19764 0.1182248,-0.005 0.2261295,0.0505 0.3232242,0.16524 0.052345,0.0599 0.081412,0.1228 0.090152,0.18786 0.00808,0.0624 -0.00504,0.12409 -0.039798,0.18275 0.084859,-0.0286 0.1673726,-0.033 0.250245,-0.004 0.08114,0.0233 0.1556943,0.0774 0.2213811,0.15365 0.09874,0.12065 0.1371309,0.23937 0.107424,0.36055 -0.027648,0.1179 -0.1241316,0.23532 -0.2851908,0.35752 l -0.5649534,0.42806 z"
       style="fill:#821c1c;fill-opacity:1;fill-rule:nonzero;stroke:none;stroke-width:0.03691455"
       inkscape:connector-curvature="0" />
    <path
       id="path121"
       d="m 8.0664839,290.10783 0.09337,0.11212 -0.842819,0.63702 c 0.087091,0.0889 0.1773705,0.13486 0.2689641,0.14173 0.091609,0.007 0.184434,-0.0257 0.2792528,-0.0944 0.076714,-0.0579 0.1443173,-0.12906 0.201319,-0.21485 0.056911,-0.0858 0.108001,-0.18498 0.1517003,-0.29888 l 0.2569855,0.30606 c -0.056353,0.10034 -0.117935,0.19231 -0.1886282,0.27325 -0.070647,0.0831 -0.1490056,0.15652 -0.2326449,0.22141 -0.2059124,0.15501 -0.4125946,0.21941 -0.6207548,0.19081 -0.2109989,-0.0285 -0.4018564,-0.14659 -0.5752296,-0.35436 -0.1717737,-0.20194 -0.2514424,-0.40616 -0.2395421,-0.60351 0.014032,-0.20062 0.1185684,-0.37624 0.3144584,-0.52393 0.1758917,-0.13322 0.3692439,-0.18101 0.574076,-0.14278 0.2068042,0.035 0.3918626,0.15378 0.5591528,0.35028 z m -0.4833021,0.14662 c -0.064939,-0.0734 -0.1342429,-0.11915 -0.2136887,-0.13644 -0.078608,-0.014 -0.1522657,7.1e-4 -0.21722,0.0479 -0.068903,0.0539 -0.1080847,0.11879 -0.1142,0.19493 -0.00615,0.076 0.019787,0.16019 0.077167,0.24969 z"
       style="fill:#821c1c;fill-opacity:1;fill-rule:nonzero;stroke:none;stroke-width:0.03691455"
       inkscape:connector-curvature="0" />
    <path
       id="path123"
       d="m 7.6511973,289.40831 1.1798299,-0.89236 0.2076342,0.24576 -0.4089579,0.30941 0.8411736,0.99983 -0.3597985,0.27029 -0.8433189,-0.99656 -0.4089633,0.30942 z"
       style="fill:#821c1c;fill-opacity:1;fill-rule:nonzero;stroke:none;stroke-width:0.03691455"
       inkscape:connector-curvature="0" />
    <path
       id="path135"
       d="m 13.193645,276.65314 c 0.07043,-0.031 0.11816,-0.0739 0.1403,-0.1234 0.02219,-0.0496 0.01593,-0.1082 -0.01294,-0.17006 -0.02888,-0.0621 -0.06898,-0.10375 -0.12007,-0.11938 -0.0512,-0.0147 -0.113292,-0.008 -0.183751,0.0257 l -0.250788,0.11833 0.179349,0.38707 z m 0.384381,0.7951 c 0.09011,-0.0423 0.149123,-0.0938 0.176792,-0.15478 0.02773,-0.0609 0.02133,-0.13437 -0.0163,-0.2141 -0.03476,-0.0796 -0.08623,-0.12757 -0.148698,-0.14643 -0.06515,-0.0196 -0.141577,-0.005 -0.231815,0.0366 l -0.264903,0.1239 0.219882,0.47865 z m 0.116093,-0.85587 c 0.110305,-0.0156 0.209552,0.004 0.300627,0.0584 0.08828,0.0542 0.159942,0.14073 0.212034,0.25589 0.08103,0.17725 0.08542,0.3355 0.01037,0.47464 -0.07222,0.13914 -0.22668,0.26512 -0.460589,0.37196 l -0.746728,0.35187 -0.84192,-1.83178 0.676313,-0.31801 c 0.242348,-0.11247 0.437426,-0.15515 0.581871,-0.12967 0.144636,0.0265 0.253098,0.122 0.331261,0.29037 0.04052,0.0914 0.0556,0.17678 0.04502,0.25858 -0.01049,0.0791 -0.0466,0.15429 -0.108248,0.21758 z"
       style="fill:#4d4d4d;fill-opacity:1;fill-rule:nonzero;stroke:none;stroke-width:0.03599591"
       inkscape:connector-curvature="0" />
    <path
       id="path137"
       d="m 14.938276,275.87217 c -0.0931,0.0447 -0.1489,0.1143 -0.164971,0.20773 -0.01609,0.0907 0.005,0.20218 0.06561,0.33513 0.06074,0.12996 0.132386,0.21925 0.212149,0.26758 0.08288,0.0481 0.16753,0.05 0.260489,0.005 0.09294,-0.0424 0.146123,-0.10861 0.16219,-0.20192 0.0161,-0.0935 -0.0051,-0.20508 -0.0656,-0.33805 -0.06076,-0.13008 -0.132392,-0.21922 -0.212161,-0.26759 -0.07963,-0.0487 -0.167529,-0.05 -0.257691,-0.007 z m -0.144642,-0.31316 c 0.225472,-0.10411 0.431884,-0.12366 0.616606,-0.0555 0.184823,0.0677 0.330473,0.21429 0.434667,0.44171 0.101323,0.22449 0.120323,0.42989 0.05143,0.61891 -0.06895,0.18613 -0.214682,0.3327 -0.440135,0.4368 -0.225415,0.10705 -0.431885,0.12653 -0.6194,0.0583 -0.184829,-0.0677 -0.330528,-0.2142 -0.431845,-0.44165 -0.10412,-0.22456 -0.123164,-0.42992 -0.05424,-0.61898 0.06894,-0.18611 0.217524,-0.33265 0.442943,-0.43964 z"
       style="fill:#4d4d4d;fill-opacity:1;fill-rule:nonzero;stroke:none;stroke-width:0.03599591"
       inkscape:connector-curvature="0" />
    <path
       id="path139"
       d="m 17.398556,275.03162 0.381988,0.83903 -0.41987,0.19696 -0.06363,-0.13599 -0.231476,-0.50519 c -0.05496,-0.11814 -0.09538,-0.19802 -0.121303,-0.24246 -0.02306,-0.0414 -0.04883,-0.0711 -0.07166,-0.0862 -0.02859,-0.021 -0.05973,-0.0331 -0.09658,-0.0342 -0.03392,-0.003 -0.07075,0.001 -0.107425,0.0185 -0.08726,0.0426 -0.137647,0.10872 -0.156499,0.20498 -0.01611,0.0935 0.002,0.2021 0.05984,0.3262 l 0.309598,0.67654 -0.417059,0.19702 -0.630728,-1.3738 0.417021,-0.19711 0.09258,0.2009 c 0.02729,-0.10784 0.06596,-0.19789 0.121883,-0.27004 0.05304,-0.072 0.123288,-0.12667 0.207809,-0.16886 0.152208,-0.0702 0.288028,-0.0738 0.410318,-0.0157 0.125402,0.0605 0.228286,0.18597 0.315053,0.36916 z"
       style="fill:#4d4d4d;fill-opacity:1;fill-rule:nonzero;stroke:none;stroke-width:0.03599591"
       inkscape:connector-curvature="0" />
    <path
       id="path141"
       d="m 17.541495,274.31393 0.41988,-0.19698 0.619171,1.35016 c 0.08389,0.18317 0.105318,0.34172 0.06702,0.47866 -0.04116,0.13692 -0.13914,0.24334 -0.299782,0.31644 l -0.208528,0.0985 -0.130245,-0.28948 0.07033,-0.0342 c 0.08178,-0.0362 0.126585,-0.0797 0.140262,-0.132 0.01072,-0.0525 -0.007,-0.13193 -0.05902,-0.24419 z m -0.245916,-0.53478 0.419876,-0.19698 0.164897,0.35749 -0.419875,0.19698 z"
       style="fill:#4d4d4d;fill-opacity:1;fill-rule:nonzero;stroke:none;stroke-width:0.03599591"
       inkscape:connector-curvature="0" />
    <path
       id="path143"
       d="m 19.117238,273.91632 c -0.09294,0.0424 -0.146147,0.11138 -0.165014,0.20479 -0.01607,0.0906 0.0077,0.20517 0.06559,0.3351 0.06074,0.13299 0.132411,0.22217 0.212166,0.27053 0.08243,0.0456 0.167566,0.0468 0.260504,0.002 0.09291,-0.0424 0.146127,-0.10859 0.162205,-0.2019 0.01611,-0.0935 -0.005,-0.20508 -0.06561,-0.33513 -0.06074,-0.13298 -0.132428,-0.22214 -0.212146,-0.26758 -0.07959,-0.0487 -0.164654,-0.0501 -0.257693,-0.007 z m -0.144671,-0.31613 c 0.225472,-0.1041 0.431885,-0.12367 0.616601,-0.0556 0.184825,0.0677 0.330525,0.21716 0.434664,0.4417 0.104172,0.22457 0.120357,0.4328 0.05144,0.61893 -0.0661,0.18618 -0.214694,0.33271 -0.440114,0.4397 -0.225436,0.10419 -0.431886,0.12365 -0.619425,0.0556 -0.184827,-0.0677 -0.330496,-0.21429 -0.431803,-0.43873 -0.104176,-0.22747 -0.12319,-0.43284 -0.05424,-0.61896 0.06891,-0.18907 0.2175,-0.33559 0.442915,-0.44261 z"
       style="fill:#4d4d4d;fill-opacity:1;fill-rule:nonzero;stroke:none;stroke-width:0.03599591"
       inkscape:connector-curvature="0" />
    <path
       id="path145"
       d="m 20.383522,274.00191 -0.384816,-0.83908 0.419869,-0.19697 0.06363,0.13599 c 0.03467,0.0738 0.07811,0.16835 0.127331,0.28068 0.05209,0.11236 0.0868,0.18906 0.104162,0.22453 0.04928,0.11224 0.08963,0.18911 0.11558,0.23649 0.02871,0.0444 0.05449,0.0771 0.07735,0.0923 0.03122,0.0215 0.06259,0.0335 0.09649,0.0343 0.03677,0.003 0.07072,-0.005 0.107432,-0.0213 0.08709,-0.0403 0.140462,-0.10867 0.156547,-0.20204 0.01894,-0.0934 -0.002,-0.20212 -0.05983,-0.32623 l -0.30964,-0.67946 0.417056,-0.19702 0.630731,1.37385 -0.417043,0.197 -0.09254,-0.19798 c -0.02441,0.10808 -0.06593,0.20085 -0.119029,0.27303 -0.05308,0.0695 -0.120503,0.12374 -0.207915,0.16284 -0.149327,0.0733 -0.287998,0.0765 -0.413136,0.0186 -0.122302,-0.0608 -0.225454,-0.1859 -0.312222,-0.36911 z"
       style="fill:#4d4d4d;fill-opacity:1;fill-rule:nonzero;stroke:none;stroke-width:0.03599591"
       inkscape:connector-curvature="0" />
    <path
       id="path147"
       d="m 22.866165,272.2744 c -0.04539,-7.1e-4 -0.08775,9.1e-4 -0.127318,0.0117 -0.04271,0.007 -0.07906,0.0193 -0.115715,0.0358 -0.106929,0.051 -0.17428,0.12566 -0.19875,0.22758 -0.0244,0.0992 -0.0064,0.21368 0.05442,0.34956 l 0.292182,0.6323 -0.419874,0.19697 -0.63073,-1.37382 0.419876,-0.19698 0.101343,0.22745 c 0.013,-0.11689 0.04605,-0.20999 0.09624,-0.28518 0.05025,-0.0722 0.126093,-0.13237 0.221876,-0.18027 0.01413,-0.006 0.031,-0.0118 0.04797,-0.0168 0.01662,-0.009 0.0424,-0.0164 0.07336,-0.0278 z"
       style="fill:#4d4d4d;fill-opacity:1;fill-rule:nonzero;stroke:none;stroke-width:0.03599591"
       inkscape:connector-curvature="0" />
    <text
       xml:space="preserve"
       style="font-style:normal;font-weight:normal;font-size:4.86979771px;line-height:1.25;font-family:sans-serif;letter-spacing:0px;word-spacing:0px;fill:#d44250;fill-opacity:1;stroke:none;stroke-width:0.12174495"
       x="-54.131611"
       y="282.27301"
       id="text851"
       transform="rotate(-14.631759)"><tspan
         sodipodi:role="line"
         id="tspan849"
         x="-54.131611"
         y="282.27301"
         style="fill:#d44250;fill-opacity:1;stroke-width:0.12174495">Hi!</tspan></text>
    <text
       xml:space="preserve"
       style="font-style:normal;font-weight:normal;font-size:3.18668127px;line-height:1.25;font-family:sans-serif;letter-spacing:0px;word-spacing:0px;fill:#4d4d4d;fill-opacity:1;stroke:none;stroke-width:0.07966703"
       x="147.93361"
       y="238.35977"
       id="text867"
       transform="rotate(31.665662)"><tspan
         sodipodi:role="line"
         x="147.93361"
         y="238.35977"
         style="fill:#4d4d4d;fill-opacity:1;stroke-width:0.07966703"
         id="tspan869">元気?</tspan></text>
    <g
       id="g922"
       transform="matrix(1.5570047,0,0,1.5570047,-47.552311,-161.09158)">
      <path
         style="opacity:1;fill:#7c7c7c;fill-opacity:1;stroke:none;stroke-width:0.59592646;stroke-linecap:square;stroke-linejoin:round;stroke-miterlimit:4;stroke-dasharray:none;stroke-dashoffset:0;stroke-opacity:1;paint-order:fill markers stroke"
         d="m 41.93985,285.69975 c -0.157251,-0.17913 -0.296297,-0.32244 -0.359139,-0.39246 -0.200546,-0.22344 -0.06989,-0.5107 0.228719,-0.66748 0.144755,-0.076 0.923404,-0.53441 1.614358,-1.24709 0.906977,-0.93549 1.738045,-2.21265 1.787863,-2.29864 0.08778,-0.15151 0.608442,-1.04501 0.689783,-1.19245 0.168948,-0.30622 -0.163101,-1.10051 -0.623696,-0.88584 0,0 -0.197602,0.048 -0.423937,0.15897 -0.410574,0.20129 -0.959714,0.44383 -1.113215,0.51392 -0.538857,0.24603 -1.286338,0.66091 -2.036378,1.4232 -0.664617,0.67545 -1.411766,1.86647 -1.488443,2.0009 -0.163195,0.28611 -0.337154,0.57553 -0.386575,0.64313 -0.04943,0.0676 -0.143305,0.20212 -0.20863,0.29892 -0.02161,0.032 -0.06731,0.047 -0.125013,0.0516 -0.122741,0.0103 -0.299738,-0.0271 -0.414476,-0.045 -0.268358,-0.0422 -0.264597,-0.0556 -0.246008,-0.18626 0.009,-0.0637 0.03921,-0.35109 0.02704,-0.69365 -0.01424,-0.40112 0.0076,-0.86566 0.01444,-0.97805 0.0264,-0.43549 0.02732,-0.95701 -0.01212,-1.35823 -0.03122,-0.31746 -0.137956,-0.69413 -0.142116,-1.03823 -0.04836,-0.32526 -0.203613,-0.5188 -0.237333,-0.8628 -0.04416,-0.39553 -0.580679,-1.12183 -0.92337,-1.46832 -0.255233,-0.25807 -1.073066,0.0103 -1.220672,0.59158 0,0 -0.02619,1.65107 -0.02722,2.84582 -5.29e-4,0.6066 -0.03373,1.18902 -0.04889,1.20665 0,0 -0.01544,0.20507 -0.02779,0.33394 -0.01218,0.12707 -0.0031,0.25058 -4.5e-4,0.27594 0.02004,0.1878 0.08416,0.96708 0.149309,1.10149 0.19176,0.39567 0.397343,0.86979 0.262195,1.27067 -0.109043,0.32344 -0.440137,0.75029 -0.634903,1.11077 -0.160494,0.29703 -0.20039,0.54899 -0.191539,0.66088 0,0 0.01913,2.16452 0.731154,2.30653 0.637004,0.12704 2.133027,0.52603 2.94024,0.53423 0.488152,0.005 1.369422,0.11783 2.045055,-0.0233 0.635468,-0.13271 -0.321239,0.0613 0,0 0.0678,-0.0129 0.182763,-0.0625 0.315339,-0.14129 0.436375,-0.25941 1.063627,-0.83628 0.828461,-1.47218 -0.297716,-0.80502 -0.664585,-2.28958 -0.742051,-2.37783 z"
         id="path1052-1-2-7-3-0-6"
         inkscape:connector-curvature="0"
         sodipodi:nodetypes="ccsscssssssccsscssscccssssscssssssssscc" />
      <path
         sodipodi:nodetypes="ccscsssc"
         style="fill:#ffffff;fill-opacity:1;stroke:none;stroke-width:0.47389862;stroke-linecap:round;stroke-linejoin:round;stroke-miterlimit:10;stroke-opacity:1"
         inkscape:connector-curvature="0"
         d="m 38.31702,284.09974 c 0.08176,-0.62135 0.236379,-2.06463 0.03149,-3.18119 -0.04716,-0.27434 -0.251732,-1.17725 -0.524201,-1.6981 -0.213307,-0.40776 -0.525926,-0.44201 -0.64449,-0.42882 -0.130286,0.0148 -0.15426,1.2178 -0.16299,1.69369 -0.0049,0.27118 0.01501,1.92864 0.171029,2.42751 0.123753,0.3957 0.213266,0.76697 0.292645,1.06868 0.04405,0.16742 0.0653,0.33512 0.112229,0.43994"
         stroke-miterlimit="10"
         id="path849-1-0-3-7-5" />
      <path
         inkscape:transform-center-y="0.085405242"
         inkscape:transform-center-x="0.26390144"
         sodipodi:nodetypes="ccscssssc"
         style="fill:#ffffff;fill-opacity:1;stroke:none;stroke-width:0.42982653;stroke-linecap:round;stroke-linejoin:round;stroke-miterlimit:10;stroke-opacity:1"
         inkscape:connector-curvature="0"
         d="m 41.296459,284.73364 c 0.468095,-0.32737 1.572069,-1.04595 2.224852,-1.81348 0.204822,-0.17056 1.434824,-1.64009 1.612083,-2.13642 0.138772,-0.38857 0.09769,-0.69371 0.01405,-0.76279 -0.06053,-0.0498 -0.951245,0.39466 -1.592358,0.89796 -0.334555,0.26263 -0.627164,0.5211 -0.751538,0.5955 -0.212544,0.12717 -1.223342,1.31365 -1.459329,1.72074 -0.18718,0.32289 -0.344064,0.64519 -0.49624,0.88164 -0.08445,0.13122 -0.183459,0.24774 -0.224105,0.34249"
         stroke-miterlimit="10"
         id="path849-1-0-3-1-2-3" />
      <ellipse
         transform="scale(-1,1)"
         ry="0.59262586"
         rx="0.59032649"
         cy="286.74255"
         cx="-38.482449"
         id="path1043"
         style="opacity:1;fill:#000000;fill-opacity:1;stroke:none;stroke-width:0.00717428;stroke-linecap:square;stroke-linejoin:round;stroke-miterlimit:4;stroke-dasharray:none;stroke-dashoffset:0;stroke-opacity:1;paint-order:fill markers stroke" />
      <path
         sodipodi:nodetypes="ccccccsccccc"
         inkscape:connector-curvature="0"
         id="path1046"
         d="m 41.247114,288.29807 0.32239,-0.0545 0.31957,-0.0262 0.224269,0.009 c 0.06418,-0.0103 0.104607,0.0685 0.07577,0.13676 l -0.27048,0.7051 c -0.018,0.0594 -0.07265,0.1889 -0.111632,0.19569 -0.046,0.008 -0.132002,-0.17456 -0.132002,-0.17456 l -0.07359,-0.0941 -0.482214,-0.30175 -0.05388,-0.0754 c -0.148919,-0.23827 -0.03036,-0.22879 0.181807,-0.32005 z"
         style="fill:#ffffff;fill-opacity:1;stroke:#ffffff;stroke-width:0.00597867px;stroke-linecap:butt;stroke-linejoin:miter;stroke-opacity:1" />
      <ellipse
         transform="scale(-1,1)"
         ry="0.39127007"
         rx="0.36125332"
         cy="286.42001"
         cx="-38.25732"
         id="path1088"
         style="opacity:1;fill:#ffffff;fill-opacity:1;stroke:#7c7c7c;stroke-width:0.01241876;stroke-linecap:round;stroke-linejoin:round;stroke-miterlimit:4;stroke-dasharray:none;stroke-dashoffset:0;stroke-opacity:1;paint-order:normal" />
    </g>
    <path
       style="opacity:1;fill:#7c7c7c;fill-opacity:1;stroke:#7c7c7c;stroke-width:0.11464337;stroke-linecap:round;stroke-linejoin:round;stroke-miterlimit:4;stroke-dasharray:none;stroke-dashoffset:0;stroke-opacity:1;paint-order:normal"
       d="m 19.84778,295.81543 c 0.352115,-0.163 0.464885,0.0624 1.057013,-1.42095 0.03336,-0.0836 0.06825,-0.17258 0.104789,-0.26739 -0.02449,-0.7438 -0.283743,-1.09192 -1.880046,-0.82744 0.02191,-0.2114 -0.169865,-0.6516 -0.492334,-0.45791 -1.331985,0.89695 -1.743345,2.16351 -1.710029,0.87203 -9.68e-4,-0.29939 -0.05164,-0.89831 -0.07238,-1.13326 -0.06923,-0.78419 -0.998486,-1.41893 -1.12746,-2.72278 -0.02236,-0.27533 -0.08606,-0.55933 -0.141548,-0.63111 -0.05548,-0.0718 -0.03762,-0.41372 0.03972,-0.75988 -4.640785,-4.00363 -6.2536845,0.42238 -7.1323915,2.07267 -0.08432,0.21276 -0.119647,0.43587 -0.164139,0.59699 0.05385,0.0414 -1.7613987,5.40144 -1.2164156,5.81585 6.5858831,0.31832 4.6601131,0.35649 8.9535171,0.0197 0.186121,-0.0146 0.667568,0.0217 0.878598,-0.0244 0.718366,-0.15671 2.000854,-0.81236 2.903108,-1.13223 z"
       id="path1062"
       inkscape:connector-curvature="0"
       sodipodi:nodetypes="csccccsccccccsscc" />
  </g>
</svg>
