<svg xmlns="http://www.w3.org/2000/svg" width="87.000336" height="45.000011" viewBox="0 0 23.018838 11.906254">
  <g stroke-linecap="round" stroke-linejoin="round">
    <g fill="#fff" stroke-width="1.03464448" aria-label="HEY," font-family="AppetitePro" font-size="24.026577" font-weight="700" letter-spacing="0" paint-order="stroke fill markers" style="line-height:1.25;-inkscape-font-specification:Verdana;font-variant-ligatures:normal;font-variant-position:normal;font-variant-caps:normal;font-variant-numeric:normal;font-variant-alternates:normal;font-feature-settings:normal;text-indent:0;text-align:start;text-decoration-line:none;text-decoration-style:solid;text-decoration-color:#000;text-transform:none;text-orientation:mixed;shape-padding:0" white-space="normal" word-spacing="0">
      <path d="M11.37513258 2.1353139c-.54144368 0-.80343217.48321713-.80343217.5938331 0 .05239699.01164317.06404074.05821947.09315023.17465916.12225972.26781057.27362893.26781057.62876435V6.2863234c0 .02328846.02328876.02910949.02328876.02910949.18630208.04657523.39589365.06404098.6171284.06404098.19794597 0 .4308263-.02328847.61130632-.06404098.01747081-.00582272.02328634-.01746575.02328634-.0291095V4.63290605h1.18768072c0 .8441743-.00581552 1.65341736-.00581552 1.65923935 0 .02328847.02328633.0291095.02328633.0291095.18048002.03493124.40171476.05821898.60548354.05821898.1979484 0 .44829227-.01746575.61712912-.05821899 0 0 .02910913-.00582272.02910913-.03493148V2.27503936c0-.02328847-.02328634-.0291095-.02328634-.0291095-.17465964-.04075323-.42500351-.05821898-.62877229-.05821898-.18048244 0-.4308263.02328847-.59384036.05821899-.01747081.00582272-.02328634.01746574-.02328634.02910949V3.7538h-1.18768072v-.83253056c0-.51814838-.3434965-.78595556-.79760914-.78595556zM18.4064287 5.27331414c-.378426.12225972-.71609969.19212245-1.00137791.19212245-.51233334 0-.87329337-.2095882-.87329337-.71609283v-.03493124c.24452108.03493124.54726284.06404074.71027932.06404074.55308563 0 .72774528-.43082015.72774528-.72773658 0-.11643797-.04075473-.16883496-.08732982-.16883496-.12226175 0-.5297993.10479398-1.35069478.06404074v-.50650463s.69281335.02328847 1.04213021.02328847c.65206106 0 .90240493-.34931367.90240493-.75684607 0-.38424515-.16883685-.55307987-.25616667-.55307987-.07568423 0-.25616667.09315023-.65205863.09315023-.3376737-.00582272-.87329579-.01164302-1.33905403-.01746574-.8616502 0-1.22261265.34931366-1.22261265.51232662 0 .12808172.26198946.12225973.26198946.76266807 0 .16883471.00581553 1.47876064.00581553 1.47876064 0 1.0130095.75685441 1.45547316 1.65343654 1.45547316.91987089 0 1.46713615-.59965486 1.5952207-1.02465301.02328634-.08732848-.03493193-.16883496-.11644138-.13972547zM22.04379573 2.18771088c-.30856456 0-.47740141.05821899-.47740141.05821899s-.04075472 0-.0523979.03493124c-.16883684.50650487-.37842841 1.12944723-.63459508 1.58937686h-.02910913c-.23288033-.8208868-.44829228-1.74074607-1.3972723-1.74074607-.61130633 0-.83836386.47157338-.83836386.6462301 0 .06986272.0174708.08150672.05822069.10479421.11643895.06404074.2270551.15136922.32020773.2561632.41918072.46575138.75103404 1.07122824.88493896 1.84554005.01163105.93150278-.00581553 1.30992593-.00581553 1.30992593 0 .02328847.02328634.0291095.02328634.0291095.18048001.03493124.40171475.05821898.60548353.05821898.1979484 0 .44829227-.01746575.61712912-.05821899 0 0 .02910913-.00582272.02910913-.03493148V4.77845326c.5297993-.79759931.97226878-1.58937687 1.43802702-2.48594816.02328634-.02910949-.02911155-.04657523-.02911155-.04657523s-.17465722-.05821899-.51233092-.05821899zM22.29941477 5.07536969c-.40753755 0-.72192491.30273842-.72192491.67533958 0 .33766992.27363263.6462301.61712912.6229426l.00581553.01164302c-.15137088.32602617-.4366491.42499815-.44246948.51814862 0 .03493125.00581552.08150648.07568423.08732824.30856456.01164302 1.18186035-.41917616 1.18186035-1.19930996 0-.4075324-.2969214-.71609283-.71610211-.71609283z" style="-inkscape-font-specification:'AppetitePro Bold'"/>
    </g>
    <g fill="#fff" stroke-width=".57831222" aria-label="LISTEN!" font-family="AppetitePro" font-size="13.42960167" font-weight="400" letter-spacing="0" paint-order="stroke fill markers" style="line-height:1.25;-inkscape-font-specification:Haettenschweiler;font-variant-ligatures:normal;font-variant-position:normal;font-variant-caps:normal;font-variant-numeric:normal;font-variant-alternates:normal;font-feature-settings:normal;text-indent:0;text-align:start;text-decoration-line:none;text-decoration-style:solid;text-decoration-color:#000;text-transform:none;text-orientation:mixed;shape-padding:0" white-space="normal" word-spacing="0">
      <path d="M11.44475655 7.7870112c0-.28961779-.1789801-.42954558-.4458231-.42954558-.31565514 0-.44907616.27009314-.44907616.33192158 0 .02928735.00650854.03579557.03254175.05206624.09762524.0683369.14969189.15294423.14969189.35144648v.86885387c0 .31565091-.01952563.51089893-.01952563.63781004 0 .0683369.01952563.13341958.06833752.13341958.0520669 0 .12691296-.0292871.34168738-.0292871.13342271 0 .56297446.06508267.72893746.06508267.36446631 0 .52392078-.17897735.52392078-.44256227 0-.1594527-.0781001-.3091427-.14969165-.3091427-.03905126 0-.08135437.04230379-.21477466.07484512-.11064281.02603288-.2798601.048812-.5662263.03579533zM13.23709452 7.79351967c0-.28961804-.1789801-.42954583-.4458231-.42954583-.31565466 0-.44907495.27009314-.44907495.33192182 0 .0292871.00651823.03579533.0325403.052066.09762572.0683369.14969406.15294423.14969406.35144647V9.6841714c0 .01301693.01301225.01627116.01301225.01627116.10413426.02603312.22128562.03579556.3449431.03579556.11064281 0 .24080883-.01301692.34168883-.03579556.00976524-.00325423.01301224-.0097627.01301224-.01627116zM15.43966214 9.05286934c0-.68987628-1.20729843-.65082673-1.20729843-1.09013477 0-.11064069.08460864-.20175624.1985033-.20501047.15620019-.00650846.21477708.11064045.21477708.21151869 0 .05532022-.01625924.10738646-.01625924.12365713 0 .048812.1204032.14969024.2993833.14969024.29938572 0 .41328038-.1789776.41328038-.36120893 0-.27334737-.28636621-.52716984-.95347252-.52716984-.55320921 0-.95021824.31239692-.95021824.7126554 0 .76146742 1.19753562.73218007 1.19753562 1.09013502 0 .11064044-.06833728.20501046-.23430029.20501046-.19199718 0-.266843-.11064069-.266843-.21151893 0-.05532022.01625924-.10738621.01625924-.12365688 0-.048812-.12691417-.14969024-.31565466-.14969024-.31565466 0-.43606028.17897735-.43606028.36120893 0 .27334712.30263757.5271696 1.00554086.5271696.58575193 0 1.03482688-.31239693 1.03482688-.71265541zM17.39821754 7.37048206c-.07484582 0-.10088.06182868-.49463475.06182868-.22453747 0-.72893504-.04230379-.95347251-.04230379-.34168883 0-.49788903.17246914-.49788903.41978339 0 .12691111.06833729.29612601.11715136.29612601.05206592 0 .20826612-.04555777.44907495-.04555777.03254272 0 .06833728 0 .10413427.00325423 0 .9729861 0 1.61730485-.003247 1.62381307 0 .01301692.01301224.01627115.01301224.01627115.10088.01952538.22453747.03254134.33843456.03254134.11064038 0 .25057164-.0097627.34494067-.03254134 0 0 .01628348-.00325423.01628348-.01952538V8.1156788c.05532262.00650846.10738854.0097627.1562002.0097627.37423154 0 .55971775-.17246914.55971775-.43605406 0-.15945245-.0781001-.31890514-.14969165-.31890514zM19.5306693 9.117952c-.2115228.06833691-.4002633.10738647-.55971776.10738647-.28636863 0-.4881262-.11714867-.4881262-.40025849V8.8055546c.13667456.01952538.30589184.03579532.39700902.03579532.30914611 0 .40677184-.24080579.40677184-.4067667 0-.06508267-.02277748-.09436978-.04881408-.09436978-.06833728 0-.29612902.05857421-.75496679.03579533v-.28310958s.38724621.01301692.58249524.01301692c.36446874 0 .50439757-.19524802.50439757-.42303737 0-.21477292-.09437145-.3091427-.1431831-.3091427-.04230311 0-.14318311.05206624-.36446874.05206624-.18874048-.00325423-.4881262-.00650846-.74845825-.0097627-.48161766 0-.68337766.19524803-.68337766.28636382 0 .07159089.14643738.06833666.14643738.4262916 0 .09436978.003247.82654984.003247.82654984 0 .5662194.4230432.81353365.9241865.81353365.51416038 0 .82005222-.33517581.89164377-.57272761.01301224-.048812-.01953047-.09437002-.065083-.07809936zM21.8902513 7.43231074c-.09437146-.02603312-.1562002-.03254134-.25382593-.03254134-.09111718 0-.16921728.0097627-.25382592.03254134 0 0-.01625924.00325423-.01625924.01952538v1.03156056l-.00976524.00325423s-.61503795-.77448385-.75496679-.91115766c-.13993126-.13667356-.28311436-.2180269-.49138048-.2180269-.29287718 0-.45884018.2375518-.45884018.33192158 0 .07484512.13992883.05532046.13992883.33192182v1.66611661c0 .01301692.01301224.01627116.01301224.01627116.09437146.02603311.1562002.03254133.25382592.03254133.09437145 0 .17247155-.00976269.25382592-.03254133 0 0 .01625924-.00325424.01625924-.01952539V8.47038024h.00651824c.38073766.45232448.98276096 1.16497989 1.03482688 1.22680857.003247.00650846.00976524.00650846.00976524.00650846.09437145.02603312.1562002.03254134.25382592.03254134.09437145 0 .17247155-.0097627.25382592-.03254134 0 0 .01625924-.00325423.01625924-.01952538v-2.23559c0-.01301692-.01301224-.01627115-.01301224-.01627115zM23.018839 9.38153693c0-.20826446-.1789801-.3774796-.41328038-.3774796-.22779175 0-.40351757.16921514-.40351757.3774796 0 .2082647.16921728.37422537.40351757.37422537.2440631 0 .41328038-.16596067.41328038-.37422537zm-.44582068-2.15098267c-.36121446 0-.47185727.29287227-.47185727.37097138 0 .02603312.00651824.03579557.02928844.05206624.08786292.05857445.12040563.13341933.13667457.3156509.04230553.50439072.11064281.8558372.32867174.8558372.20501427 0 .39700903-.53367782.39700903-1.12593033 0-.30263448-.18548622-.46859539-.4197865-.46859539z" style="-inkscape-font-specification:AppetitePro"/>
    </g>
    <g stroke="#fff" stroke-dashoffset="1" stroke-miterlimit="1.60000002">
      <path fill="none" stroke-width=".48425293" d="M654.38025-27.968499c-.76783-2.952554-1.91357-5.527984-1.8405-8.795876.0929-1.798185 1.33984-2.484318 2.26853-2.439732 2.82859-.330673 1.32625 8.883092 1.11287 11.727834M658.78804-27.769641c.55499-2.134119 1.38313-4.058802 1.33032-6.420848-.0671-1.299735-.96845-1.795675-1.63971-1.763449-2.04451-.239012-.8516 6.513325-.69738 8.569516" paint-order="stroke fill markers" transform="matrix(.96748 0 0 .96678 -631.081152 38.14366)"/>
      <path fill="#fff" stroke-width=".17162012" d="M655.23793-27.603618c-.27212-1.046391-1.11833-3.752577-1.09244-4.910723.0329-.637279.47485-.880447.80397-.864646 1.00246-.11719.36409 4.767187.28847 5.775369" paint-order="stroke fill markers" transform="matrix(.96748 0 0 .96678 -631.081152 38.14366)"/>
      <path fill="#fff" stroke-width=".13274999" d="M658.25838-27.543993c.15214-.585033.63642-2.337486.62195-2.985002-.0184-.356302-.26549-.492255-.4495-.483421-.56048-.06552-.21473 2.904752-.17245 3.468423" paint-order="stroke fill markers" transform="matrix(.96748 0 0 .96678 -631.081152 38.14366)"/>
    </g>
  </g>
</svg>
