<?xml version="1.0" encoding="UTF-8" standalone="no"?>
<!-- Created with Inkscape (http://www.inkscape.org/) -->

<svg
   xmlns:dc="http://purl.org/dc/elements/1.1/"
   xmlns:cc="http://creativecommons.org/ns#"
   xmlns:rdf="http://www.w3.org/1999/02/22-rdf-syntax-ns#"
   xmlns:svg="http://www.w3.org/2000/svg"
   xmlns="http://www.w3.org/2000/svg"
   xmlns:sodipodi="http://sodipodi.sourceforge.net/DTD/sodipodi-0.dtd"
   xmlns:inkscape="http://www.inkscape.org/namespaces/inkscape"
   width="92.861687"
   height="45.638023"
   viewBox="0 0 24.569654 12.075061"
   version="1.1"
   id="svg3092"
   inkscape:version="0.92.2 (5c3e80d, 2017-08-06)"
   sodipodi:docname="эй-слышь-лого-кривые.svg">
  <defs
     id="defs3086" />
  <sodipodi:namedview
     id="base"
     pagecolor="#ffffff"
     bordercolor="#666666"
     borderopacity="1.0"
     inkscape:pageopacity="0.0"
     inkscape:pageshadow="2"
     inkscape:zoom="5.6"
     inkscape:cx="39.531571"
     inkscape:cy="14.552545"
     inkscape:document-units="mm"
     inkscape:current-layer="layer1"
     showgrid="false"
     units="px"
     fit-margin-top="0"
     fit-margin-left="0"
     fit-margin-right="0"
     fit-margin-bottom="0"
     inkscape:window-width="1920"
     inkscape:window-height="1017"
     inkscape:window-x="-8"
     inkscape:window-y="-8"
     inkscape:window-maximized="1" />
  <metadata
     id="metadata3089">
    <rdf:RDF>
      <cc:Work
         rdf:about="">
        <dc:format>image/svg+xml</dc:format>
        <dc:type
           rdf:resource="http://purl.org/dc/dcmitype/StillImage" />
        <dc:title></dc:title>
      </cc:Work>
    </rdf:RDF>
  </metadata>
  <g
     inkscape:label="Layer 1"
     inkscape:groupmode="layer"
     id="layer1"
     transform="translate(-85.252612,-119.62342)">
    <g
       id="g1158-7-6-1"
       transform="matrix(0.2423136,0,0,0.24231054,72.069552,119.28152)"
       style="fill:#ffffff;fill-opacity:1"
       inkscape:export-xdpi="96"
       inkscape:export-ydpi="96"
       inkscape:export-filename="C:\Users\poluyakhtova\Desktop\text910-59-6-9-5-8-7-2-2.png">
      <g
         transform="translate(0,5.7017146)"
         id="g829">
        <g
           aria-label="ЭЙ,"
           style="font-style:normal;font-variant:normal;font-weight:normal;font-stretch:normal;font-size:34.968647px;line-height:1.25;font-family:Verdana;-inkscape-font-specification:Verdana;font-variant-ligatures:normal;font-variant-position:normal;font-variant-caps:normal;font-variant-numeric:normal;font-variant-alternates:normal;font-feature-settings:normal;text-indent:0;text-align:start;text-decoration:none;text-decoration-line:none;text-decoration-style:solid;text-decoration-color:#000000;letter-spacing:0px;word-spacing:0px;text-transform:none;writing-mode:lr-tb;direction:ltr;text-orientation:mixed;dominant-baseline:auto;baseline-shift:baseline;text-anchor:start;white-space:normal;shape-padding:0;opacity:1;vector-effect:none;fill:#ffffff;fill-opacity:1;fill-rule:nonzero;stroke:none;stroke-width:1.50583744;stroke-linecap:round;stroke-linejoin:round;stroke-miterlimit:4;stroke-dasharray:none;stroke-dashoffset:0;stroke-opacity:1;paint-order:stroke fill markers"
           id="text910-2-2-1-5">
          <path
             d="m 120.19682,14.557367 c 0,-7.1336042 -4.0214,-13.0433055 -12.41387,-12.7635563 -6.53914,0.2098118 -9.966067,5.0354851 -9.966067,7.6581337 0,0.3147178 0.139875,0.7343416 0.629436,0.7343416 0.454592,0 3.077241,-2.2030248 7.448321,-2.3079308 3.07724,-0.069937 5.73486,1.2588713 6.15448,4.3011438 -0.90918,-0.209812 -2.27296,-0.349687 -3.21711,-0.349687 -3.07724,0 -4.19624,2.272962 -4.26618,3.986426 -0.035,0.699373 0.17485,1.014091 0.45459,1.04906 0.73435,0.03497 1.92328,-0.454593 7.09864,-0.174844 v 0.559499 c -0.10491,2.972335 -1.32881,5.66492 -4.16127,5.66492 -1.53862,0 -2.79749,-1.01409 -3.32202,-2.552711 -0.17484,-0.524529 -0.20981,-1.084028 -0.20981,-1.678495 0,-0.594467 -0.87422,-0.979122 -2.20303,-1.014091 -2.377865,-0.03497 -4.05636,1.538621 -4.05636,3.846552 0,3.391958 3.91649,6.119513 9.30166,6.119513 7.30845,0 12.72859,-5.525046 12.72859,-13.078274 z"
             style="font-style:normal;font-variant:normal;font-weight:bold;font-stretch:normal;font-family:AppetitePro;-inkscape-font-specification:'AppetitePro Bold';fill:#ffffff;fill-opacity:1;stroke-width:1.50583744"
             id="path853"
             inkscape:connector-curvature="0" />
          <path
             d="m 125.76885,1.7238734 c -3.39196,0 -4.82567,2.9023977 -4.82567,3.566802 0,0.3147178 0.0699,0.3846551 0.34969,0.5594983 1.04906,0.7343416 1.60855,1.6435264 1.60855,3.7766139 0.035,14.0573964 0.0699,17.0297314 0.035,17.1346374 0,0.139874 0.13988,0.174843 0.13988,0.174843 1.08403,0.209812 1.7834,0.349686 2.65761,0.349686 1.18894,0 1.81837,-0.104906 2.83246,-0.349686 0,0 0.10491,-0.03497 0.13988,-0.104906 l 8.77713,-13.043305 0.10491,0.06994 c -0.13988,0.804279 -0.17485,3.986426 -0.17485,5.035485 l -0.035,7.867946 c 0,0.139874 0.13988,0.174843 0.13988,0.174843 1.08403,0.209812 2.51774,0.349686 3.74164,0.349686 1.18894,0 2.76253,-0.104906 3.77662,-0.349686 0,0 0.17484,-0.03497 0.17484,-0.209812 V 2.6330582 c -0.0699,-0.1398746 -0.20981,-0.1748432 -0.20981,-0.1748432 -0.76931,-0.2098119 -1.50365,-0.3496865 -2.72756,-0.3496865 -1.08402,0 -2.16805,0.2098119 -2.58768,0.3496865 -0.0699,0.034969 -0.1049,0.069937 -0.13987,0.1398745 l -8.91701,13.0433055 -0.1049,-0.03497 c 0.13987,-0.76931 0.17484,-4.406049 0.17484,-5.9097011 V 6.3397348 c 0,-3.1122096 -2.06315,-4.6158614 -4.93058,-4.6158614 z m 12.16909,-6.0146073 c -1.57359,0 -2.55271,1.0140907 -2.55271,1.3288086 0,0.2447805 0.31472,0.594467 0.31472,1.0490594 0,0.8392475 -0.87422,1.29383991 -1.74843,1.29383991 -0.83925,0 -1.71347,-0.41962371 -1.71347,-1.25887131 0,-0.4545924 0.31472,-0.8392475 0.31472,-1.084028 0,-0.3147179 -0.80428,-1.3288086 -2.4478,-1.3288086 -1.25888,0 -2.7975,0.6993729 -2.7975,2.3428993 0,2.48277397 3.39196,3.6017707 6.64405,3.6017707 3.32202,0 6.67901,-1.36377726 6.67901,-3.6367393 0,-1.6784951 -1.39875,-2.3079307 -2.69259,-2.3079307 z"
             style="font-style:normal;font-variant:normal;font-weight:bold;font-stretch:normal;font-family:AppetitePro;-inkscape-font-specification:'AppetitePro Bold';fill:#ffffff;fill-opacity:1;stroke-width:1.50583744"
             id="path855"
             inkscape:connector-curvature="0" />
          <path
             d="m 151.49758,19.452977 c -2.4478,0 -4.33611,1.81837 -4.33611,4.056363 0,2.028182 1.64353,3.88152 3.70668,3.741646 l 0.035,0.06994 c -0.90918,1.958244 -2.62264,2.552711 -2.65761,3.11221 0,0.209811 0.035,0.489561 0.45459,0.524529 1.85334,0.06994 7.09864,-2.517742 7.09864,-7.203541 0,-2.447805 -1.78341,-4.301144 -4.30115,-4.301144 z"
             style="font-style:normal;font-variant:normal;font-weight:bold;font-stretch:normal;font-family:AppetitePro;-inkscape-font-specification:'AppetitePro Bold';fill:#ffffff;fill-opacity:1;stroke-width:1.50583744"
             id="path857"
             inkscape:connector-curvature="0" />
        </g>
        <g
           aria-label="СЛЫШЬ!"
           style="font-style:normal;font-variant:normal;font-weight:normal;font-stretch:normal;font-size:13.42960167px;line-height:1.25;font-family:Haettenschweiler;-inkscape-font-specification:Haettenschweiler;font-variant-ligatures:normal;font-variant-position:normal;font-variant-caps:normal;font-variant-numeric:normal;font-variant-alternates:normal;font-feature-settings:normal;text-indent:0;text-align:start;text-decoration:none;text-decoration-line:none;text-decoration-style:solid;text-decoration-color:#000000;letter-spacing:0px;word-spacing:0px;text-transform:none;writing-mode:lr-tb;direction:ltr;text-orientation:mixed;dominant-baseline:auto;baseline-shift:baseline;text-anchor:start;white-space:normal;shape-padding:0;opacity:1;vector-effect:none;fill:#ffffff;fill-opacity:1;fill-rule:nonzero;stroke:none;stroke-width:0.57831222;stroke-linecap:round;stroke-linejoin:round;stroke-miterlimit:4;stroke-dasharray:none;stroke-dashoffset:0;stroke-opacity:1;paint-order:stroke fill markers"
           id="text918-5-8-9-8">
          <path
             d="m 103.83858,39.830835 c -1.83986,0 -2.83365,-1.074368 -2.83365,-3.115668 0,-1.235523 0.6312,-2.484476 1.62499,-2.484476 0.71176,0 0.91321,0.617761 0.91321,1.181805 0,0.188014 -0.0537,0.510325 -0.0537,0.577473 0,0.295451 0.65805,0.631191 1.32953,0.631191 1.15495,0 1.62498,-0.899783 1.62498,-1.665271 0,-1.450397 -1.63841,-2.457617 -3.61256,-2.457617 -2.80679,0 -4.888375,2.121877 -4.888375,5.022671 0,2.739639 1.544404,4.901805 4.767505,4.901805 2.29647,0 3.96174,-1.933863 3.96174,-2.941083 0,-0.120866 -0.0537,-0.282022 -0.24174,-0.282022 -0.25516,0 -1.16837,0.631192 -2.59191,0.631192 z"
             style="font-style:normal;font-variant:normal;font-weight:normal;font-stretch:normal;font-family:AppetitePro;-inkscape-font-specification:AppetitePro;fill:#ffffff;fill-opacity:1;stroke-width:0.57831222"
             id="path860"
             inkscape:connector-curvature="0" />
          <path
             d="m 116.24459,35.94968 c 0,-2.229314 -1.36982,-3.464837 -3.69314,-3.464837 -2.4039,0 -4.32433,1.275812 -4.32433,2.00101 0,0.214874 0.12087,0.33574 0.42975,0.33574 0.17458,0 0.52375,-0.04029 0.77892,-0.02686 0.0403,3.491696 -0.89979,4.539205 -1.813,4.539205 -0.0671,0 -0.18801,-0.01343 -0.25516,-0.02686 -0.29545,-0.05372 -0.59091,0.631191 -0.59091,1.262383 0,1.114657 0.71177,1.853285 1.79957,1.853285 2.96794,0 2.7665,-4.39148 2.67249,-7.668303 1.82643,-0.08058 1.98758,1.101228 1.98758,2.296462 v 5.022671 c 0.0134,0.06715 0.0671,0.08058 0.0671,0.08058 0,0 0.55061,0.134296 1.38325,0.134296 0.94007,0 1.4504,-0.134296 1.4504,-0.134296 0,0 0.094,-0.02686 0.094,-0.09401 0.0134,-2.833646 0.0134,-5.868736 0.0134,-6.110469 z"
             style="font-style:normal;font-variant:normal;font-weight:normal;font-stretch:normal;font-family:AppetitePro;-inkscape-font-specification:AppetitePro;fill:#ffffff;fill-opacity:1;stroke-width:0.57831222"
             id="path862"
             inkscape:connector-curvature="0" />
          <path
             d="m 128.4372,32.753435 c -0.40288,-0.09401 -0.98036,-0.134296 -1.45039,-0.134296 -0.41632,0 -0.99379,0.05372 -1.36982,0.134296 -0.0403,0.01343 -0.0537,0.04029 -0.0537,0.06715 0,5.815017 0,9.226136 -0.0134,9.266425 0,0.05372 0.0537,0.06715 0.0537,0.06715 0.41632,0.08058 0.92664,0.134296 1.39668,0.134296 0.4566,0 1.03408,-0.04029 1.42353,-0.134296 0,0 0.0671,-0.01343 0.0671,-0.08058 v -9.252995 c 0,-0.05372 -0.0537,-0.06715 -0.0537,-0.06715 z m -3.37083,5.761299 c -0.0806,-1.530975 -1.10122,-2.779928 -2.7262,-2.779928 -0.77892,0 -1.63842,0.295451 -1.63842,0.644621 0,0.09401 0.0537,0.174585 0.22831,0.228303 0.52375,0.174585 1.15494,0.738628 1.23552,1.947292 0.0671,1.03408 -0.25516,1.893574 -0.99379,1.893574 -0.77892,0 -0.89978,-0.765487 -0.89978,-1.732418 V 34.24412 c 0,-1.195234 -0.73863,-1.772707 -1.83986,-1.772707 -1.30267,0 -1.83985,1.114657 -1.83985,1.369819 0,0.120867 0.0269,0.147726 0.13429,0.214874 0.40289,0.282022 0.61776,0.631191 0.61776,1.450397 v 3.196245 c 0,2.417328 1.2221,3.72 3.72,3.72 2.7665,0 4.10946,-1.947292 4.00202,-3.908014 z"
             style="font-style:normal;font-variant:normal;font-weight:normal;font-stretch:normal;font-family:AppetitePro;-inkscape-font-specification:AppetitePro;fill:#ffffff;fill-opacity:1;stroke-width:0.57831222"
             id="path864"
             inkscape:connector-curvature="0" />
          <path
             d="m 131.21944,32.471413 c -1.30267,0 -1.85329,1.114657 -1.85329,1.369819 0,0.120867 0.0269,0.147726 0.1343,0.214874 0.40289,0.282022 0.61776,0.631191 0.61776,1.450397 v 6.580505 c 0,0.05372 0.0537,0.06715 0.0537,0.06715 1.34296,0.107437 5.15697,0.134296 6.02989,0.134296 0.98036,0 4.35119,-0.01343 6.13733,-0.134296 0.0403,0 0.0537,-0.04029 0.0537,-0.06715 0,-5.815018 0,-9.226137 0.0134,-9.266425 0,-0.05372 -0.0537,-0.06715 -0.0537,-0.06715 -0.41632,-0.08058 -0.92664,-0.134296 -1.39668,-0.134296 -0.45661,0 -0.96693,0.04029 -1.35639,0.134296 0,0 -0.0671,0.01343 -0.0671,0.08058 v 7.157978 h -1.79957 v -7.171407 c 0,-0.05372 -0.0537,-0.06715 -0.0537,-0.06715 -0.41632,-0.08058 -0.8595,-0.134296 -1.32953,-0.134296 -0.45661,0 -1.03408,0.04029 -1.42354,0.134296 0,0 -0.0671,0.01343 -0.0671,0.08058 v 7.157978 h -1.79957 v -5.74787 c 0,-1.195234 -0.73862,-1.772707 -1.83985,-1.772707 z"
             style="font-style:normal;font-variant:normal;font-weight:normal;font-stretch:normal;font-family:AppetitePro;-inkscape-font-specification:AppetitePro;fill:#ffffff;fill-opacity:1;stroke-width:0.57831222"
             id="path866"
             inkscape:connector-curvature="0" />
          <path
             d="m 149.10977,35.734806 c -0.77892,0 -1.63841,0.295451 -1.63841,0.644621 0,0.09401 0.0537,0.174585 0.2283,0.228303 0.52375,0.174585 1.15494,0.738628 1.23552,1.947292 0.0671,1.03408 -0.25516,1.893574 -0.99379,1.893574 -0.77892,0 -0.99379,-0.765487 -0.99379,-1.732418 V 34.24412 c 0,-1.195234 -0.73863,-1.772707 -1.83985,-1.772707 -1.30268,0 -1.83986,1.114657 -1.83986,1.369819 0,0.120867 0.0269,0.147726 0.1343,0.214874 0.40288,0.282022 0.61776,0.631191 0.61776,1.450397 v 3.196245 c 0,2.417328 1.3161,3.72 3.814,3.72 2.7665,0 4.10946,-1.947292 4.00203,-3.908014 -0.0806,-1.530975 -1.10123,-2.779928 -2.72621,-2.779928 z"
             style="font-style:normal;font-variant:normal;font-weight:normal;font-stretch:normal;font-family:AppetitePro;-inkscape-font-specification:AppetitePro;fill:#ffffff;fill-opacity:1;stroke-width:0.57831222"
             id="path868"
             inkscape:connector-curvature="0" />
          <path
             d="m 155.80106,40.824625 c 0,-0.859494 -0.73862,-1.557834 -1.70555,-1.557834 -0.94008,0 -1.66528,0.69834 -1.66528,1.557834 0,0.859495 0.69834,1.544404 1.66528,1.544404 1.00722,0 1.70555,-0.684909 1.70555,-1.544404 z m -1.83985,-8.876967 c -1.49069,0 -1.94729,1.208665 -1.94729,1.530975 0,0.107437 0.0269,0.147726 0.12086,0.214874 0.3626,0.241733 0.4969,0.550613 0.56405,1.302671 0.17458,2.081588 0.4566,3.531985 1.35639,3.531985 0.84606,0 1.63841,-2.202454 1.63841,-4.646642 0,-1.248953 -0.76549,-1.933863 -1.73242,-1.933863 z"
             style="font-style:normal;font-variant:normal;font-weight:normal;font-stretch:normal;font-family:AppetitePro;-inkscape-font-specification:AppetitePro;fill:#ffffff;fill-opacity:1;stroke-width:0.57831222"
             id="path870"
             inkscape:connector-curvature="0" />
        </g>
      </g>
    </g>
    <g
       id="g2989"
       transform="matrix(0.96747921,0,0,0.96678369,-545.82854,157.93588)">
      <path
         inkscape:export-ydpi="96"
         inkscape:export-xdpi="96"
         inkscape:export-filename="C:\Users\poluyakhtova\Desktop\text910-59-6-9-5-8-7-2-2.png"
         sodipodi:nodetypes="cccc"
         inkscape:connector-curvature="0"
         id="path2887"
         d="m 654.38025,-27.968499 c -0.76783,-2.952554 -1.91357,-5.527984 -1.8405,-8.795876 0.0929,-1.798185 1.33984,-2.484318 2.26853,-2.439732 2.82859,-0.330673 1.32625,8.883092 1.11287,11.727834"
         style="opacity:1;vector-effect:none;fill:none;fill-opacity:1;fill-rule:nonzero;stroke:#ffffff;stroke-width:0.48425293;stroke-linecap:round;stroke-linejoin:round;stroke-miterlimit:1.60000002;stroke-dasharray:none;stroke-dashoffset:1;stroke-opacity:1;paint-order:stroke fill markers" />
      <path
         inkscape:export-ydpi="96"
         inkscape:export-xdpi="96"
         inkscape:export-filename="C:\Users\poluyakhtova\Desktop\text910-59-6-9-5-8-7-2-2.png"
         sodipodi:nodetypes="cccc"
         inkscape:connector-curvature="0"
         id="path2887-7"
         d="m 658.78804,-27.769641 c 0.55499,-2.134119 1.38313,-4.058802 1.33032,-6.420848 -0.0671,-1.299735 -0.96845,-1.795675 -1.63971,-1.763449 -2.04451,-0.239012 -0.8516,6.513325 -0.69738,8.569516"
         style="opacity:1;vector-effect:none;fill:none;fill-opacity:1;fill-rule:nonzero;stroke:#ffffff;stroke-width:0.48425293;stroke-linecap:round;stroke-linejoin:round;stroke-miterlimit:1.60000002;stroke-dasharray:none;stroke-dashoffset:1;stroke-opacity:1;paint-order:stroke fill markers" />
      <path
         inkscape:export-ydpi="96"
         inkscape:export-xdpi="96"
         inkscape:export-filename="C:\Users\poluyakhtova\Desktop\text910-59-6-9-5-8-7-2-2.png"
         sodipodi:nodetypes="cccc"
         inkscape:connector-curvature="0"
         id="path2887-6"
         d="m 655.23793,-27.603618 c -0.27212,-1.046391 -1.11833,-3.752577 -1.09244,-4.910723 0.0329,-0.637279 0.47485,-0.880447 0.80397,-0.864646 1.00246,-0.11719 0.36409,4.767187 0.28847,5.775369"
         style="opacity:1;vector-effect:none;fill:#ffffff;fill-opacity:1;fill-rule:nonzero;stroke:#ffffff;stroke-width:0.17162012;stroke-linecap:round;stroke-linejoin:round;stroke-miterlimit:1.60000002;stroke-dasharray:none;stroke-dashoffset:1;stroke-opacity:1;paint-order:stroke fill markers" />
      <path
         inkscape:export-ydpi="96"
         inkscape:export-xdpi="96"
         inkscape:export-filename="C:\Users\poluyakhtova\Desktop\text910-59-6-9-5-8-7-2-2.png"
         sodipodi:nodetypes="cccc"
         inkscape:connector-curvature="0"
         id="path2887-7-7"
         d="m 658.25838,-27.543993 c 0.15214,-0.585033 0.63642,-2.337486 0.62195,-2.985002 -0.0184,-0.356302 -0.26549,-0.492255 -0.4495,-0.483421 -0.56048,-0.06552 -0.21473,2.904752 -0.17245,3.468423"
         style="opacity:1;vector-effect:none;fill:#ffffff;fill-opacity:1;fill-rule:nonzero;stroke:#ffffff;stroke-width:0.13274999;stroke-linecap:round;stroke-linejoin:round;stroke-miterlimit:1.60000002;stroke-dasharray:none;stroke-dashoffset:1;stroke-opacity:1;paint-order:stroke fill markers" />
    </g>
  </g>
</svg>
