<?xml version="1.0" encoding="UTF-8" standalone="no"?>
<!-- Created with Inkscape (http://www.inkscape.org/) -->

<svg
   xmlns:dc="http://purl.org/dc/elements/1.1/"
   xmlns:cc="http://creativecommons.org/ns#"
   xmlns:rdf="http://www.w3.org/1999/02/22-rdf-syntax-ns#"
   xmlns:svg="http://www.w3.org/2000/svg"
   xmlns="http://www.w3.org/2000/svg"
   xmlns:sodipodi="http://sodipodi.sourceforge.net/DTD/sodipodi-0.dtd"
   xmlns:inkscape="http://www.inkscape.org/namespaces/inkscape"
   width="100"
   height="100"
   viewBox="0 0 26.458333 26.458333"
   version="1.1"
   id="svg1100"
   inkscape:version="0.92.3 (2405546, 2018-03-11)"
   sodipodi:docname="its-free-icon.svg">
  <defs
     id="defs1094" />
  <sodipodi:namedview
     id="base"
     pagecolor="#ffffff"
     bordercolor="#666666"
     borderopacity="1.0"
     inkscape:pageopacity="0.0"
     inkscape:pageshadow="2"
     inkscape:zoom="2"
     inkscape:cx="-154.80391"
     inkscape:cy="76.676987"
     inkscape:document-units="mm"
     inkscape:current-layer="layer1"
     showgrid="false"
     units="px"
     inkscape:window-width="1920"
     inkscape:window-height="1001"
     inkscape:window-x="-9"
     inkscape:window-y="-9"
     inkscape:window-maximized="1"
     inkscape:lockguides="true" />
  <metadata
     id="metadata1097">
    <rdf:RDF>
      <cc:Work
         rdf:about="">
        <dc:format>image/svg+xml</dc:format>
        <dc:type
           rdf:resource="http://purl.org/dc/dcmitype/StillImage" />
        <dc:title />
      </cc:Work>
    </rdf:RDF>
  </metadata>
  <g
     inkscape:label="Layer 1"
     inkscape:groupmode="layer"
     id="layer1"
     transform="translate(0,-270.54167)">
    <path
       sodipodi:nodetypes="ccsscssssssccsscssscccssssscssssssssscc"
       inkscape:connector-curvature="0"
       id="path1052-1-2-7-3-0-6"
       d="m 9.5736133,279.08586 c 0.157251,-0.17913 0.296297,-0.32244 0.359139,-0.39246 0.2005467,-0.22344 0.06989,-0.5107 -0.228719,-0.66748 -0.144755,-0.076 -0.9234034,-0.53441 -1.6143581,-1.24709 -0.906977,-0.93549 -1.7380442,-2.21265 -1.7878626,-2.29864 -0.087782,-0.15151 -0.6084418,-1.04501 -0.6897832,-1.19245 -0.1689475,-0.30622 0.1631015,-1.10051 0.6236967,-0.88584 0,0 0.1976012,0.048 0.4239369,0.15897 0.4105736,0.20129 0.959714,0.44383 1.1132148,0.51392 0.5388564,0.24603 1.2863378,0.66091 2.0363775,1.4232 0.6646177,0.67545 1.4117667,1.86647 1.4884437,2.0009 0.163195,0.28611 0.337154,0.57553 0.386575,0.64313 0.04943,0.0676 0.143305,0.20212 0.20863,0.29892 0.02161,0.032 0.06731,0.047 0.125013,0.0516 0.122741,0.0103 0.299738,-0.0271 0.414475,-0.045 0.268359,-0.0422 0.264598,-0.0556 0.246009,-0.18626 -0.009,-0.0637 -0.03921,-0.35109 -0.02704,-0.69365 0.01424,-0.40112 -0.0076,-0.86566 -0.01444,-0.97805 -0.0264,-0.43549 -0.02732,-0.95701 0.01212,-1.35823 0.03122,-0.31746 0.137956,-0.69413 0.142116,-1.03823 0.04836,-0.32526 0.203613,-0.5188 0.237333,-0.8628 0.04416,-0.39553 0.580679,-1.12183 0.92337,-1.46832 0.255233,-0.25807 1.073066,0.0103 1.220672,0.59158 0,0 0.02619,1.65107 0.02722,2.84582 5.21e-4,0.6066 0.03373,1.18902 0.04889,1.20665 0,0 0.01544,0.20507 0.02779,0.33394 0.01218,0.12707 0.0031,0.25058 4.45e-4,0.27594 -0.02004,0.1878 -0.08416,0.96708 -0.149309,1.10149 -0.19176,0.39567 -0.397343,0.86979 -0.262195,1.27067 0.109043,0.32344 0.440137,0.75029 0.634903,1.11077 0.160494,0.29703 0.20039,0.54899 0.191539,0.66088 0,0 -0.01913,2.16452 -0.731154,2.30653 -0.637004,0.12704 -2.133027,0.52603 -2.94024,0.53423 -0.488152,0.005 -1.369422,0.11783 -2.0450547,-0.0233 -0.6354687,-0.13271 0.3212387,0.0613 0,0 -0.0678,-0.0129 -0.182763,-0.0625 -0.315339,-0.14129 -0.4363757,-0.25941 -1.0636274,-0.83628 -0.8284614,-1.47218 0.2977157,-0.80502 0.6645854,-2.28958 0.7420514,-2.37783 z"
       style="opacity:1;fill:#7c7c7c;fill-opacity:1;stroke:none;stroke-width:0.59592646;stroke-linecap:square;stroke-linejoin:round;stroke-miterlimit:4;stroke-dasharray:none;stroke-dashoffset:0;stroke-opacity:1;paint-order:fill markers stroke" />
    <path
       id="path849-1-0-3-7-5"
       stroke-miterlimit="10"
       d="m 13.196444,277.48585 c -0.08176,-0.62135 -0.236379,-2.06463 -0.03149,-3.18119 0.04716,-0.27434 0.251732,-1.17725 0.524201,-1.6981 0.213307,-0.40776 0.525926,-0.44201 0.64449,-0.42882 0.130286,0.0148 0.15426,1.2178 0.16299,1.69369 0.0049,0.27118 -0.01501,1.92864 -0.171029,2.42751 -0.123753,0.3957 -0.213266,0.76697 -0.292645,1.06868 -0.04405,0.16742 -0.0653,0.33512 -0.112229,0.43994"
       inkscape:connector-curvature="0"
       style="fill:#ffffff;fill-opacity:1;stroke:none;stroke-width:0.47389862;stroke-linecap:round;stroke-linejoin:round;stroke-miterlimit:10;stroke-opacity:1"
       sodipodi:nodetypes="ccscsssc" />
    <path
       id="path849-1-0-3-1-2-3"
       stroke-miterlimit="10"
       d="M 10.217005,278.11975 C 9.7489093,277.79238 8.6449359,277.0738 7.9921522,276.30627 7.7873308,276.13571 6.5573291,274.66618 6.38007,274.16985 c -0.1387721,-0.38857 -0.09769,-0.69371 -0.014054,-0.76279 0.060526,-0.0498 0.951245,0.39466 1.5923572,0.89796 0.334555,0.26263 0.6271647,0.5211 0.7515387,0.5955 0.212544,0.12717 1.2233414,1.31365 1.4593291,1.72074 0.18718,0.32289 0.344064,0.64519 0.49624,0.88164 0.08445,0.13122 0.183459,0.24774 0.224105,0.34249"
       inkscape:connector-curvature="0"
       style="fill:#ffffff;fill-opacity:1;stroke:none;stroke-width:0.4298265;stroke-linecap:round;stroke-linejoin:round;stroke-miterlimit:10;stroke-opacity:1"
       sodipodi:nodetypes="ccscssssc"
       inkscape:transform-center-x="-0.26390124"
       inkscape:transform-center-y="0.085405242" />
    <flowRoot
       xml:space="preserve"
       id="flowRoot1753"
       style="font-style:normal;font-weight:normal;font-size:40px;line-height:1.25;font-family:sans-serif;letter-spacing:0px;word-spacing:0px;fill:#d44250;fill-opacity:1;stroke:none"
       transform="matrix(0.02680911,0.0207466,-0.02660488,0.03255671,-10.832888,301.86219)"><flowRegion
         id="flowRegion1755"
         style="fill:#d44250;fill-opacity:1"><rect
           id="rect1757"
           width="674.78192"
           height="343.45187"
           x="137.38075"
           y="-910.17297"
           style="fill:#d44250;fill-opacity:1" /></flowRegion><flowPara
         id="flowPara1759"
         style="fill:#ffffff;fill-opacity:1">FREE</flowPara></flowRoot>    <ellipse
       style="opacity:1;fill:#000000;fill-opacity:1;stroke:none;stroke-width:0.00717428;stroke-linecap:square;stroke-linejoin:round;stroke-miterlimit:4;stroke-dasharray:none;stroke-dashoffset:0;stroke-opacity:1;paint-order:fill markers stroke"
       id="path1043"
       cx="13.031013"
       cy="280.12866"
       rx="0.59032649"
       ry="0.59262586" />
    <path
       style="fill:#ffffff;fill-opacity:1;stroke:#ffffff;stroke-width:0.00597867px;stroke-linecap:butt;stroke-linejoin:miter;stroke-opacity:1"
       d="m 10.26635,281.68418 -0.3223907,-0.0545 -0.31957,-0.0262 -0.2242687,0.009 c -0.06418,-0.0103 -0.104607,0.0685 -0.07577,0.13676 l 0.2704797,0.7051 c 0.018,0.0594 0.07265,0.1889 0.111632,0.19569 0.046,0.008 0.132002,-0.17456 0.132002,-0.17456 l 0.07359,-0.0941 0.4822147,-0.30175 0.05388,-0.0754 c 0.148919,-0.23827 0.03036,-0.22879 -0.181807,-0.32005 z"
       id="path1046"
       inkscape:connector-curvature="0"
       sodipodi:nodetypes="ccccccsccccc" />
    <path
       style="opacity:1;fill:#7c7c7c;fill-opacity:1;stroke:#7c7c7c;stroke-width:0.07302287;stroke-linecap:round;stroke-linejoin:round;stroke-miterlimit:4;stroke-dasharray:none;stroke-dashoffset:0;stroke-opacity:1;paint-order:normal"
       d="m 14.717582,296.84748 c -0.207429,-0.25224 -0.327271,-0.54489 -0.194172,-0.79431 0.221792,-0.18239 0.191553,-0.49427 0.191571,-0.49508 -0.0757,-0.24398 -0.504986,-0.12095 -0.942137,-0.17857 -1.358093,-0.179 -4.3255494,0.77998 -5.1464221,0.76086 -0.3333897,-0.19253 -0.5109977,-0.36031 -0.5729477,-0.50663 -0.306149,-0.72301 2.2120988,-0.92195 2.7126968,-0.99691 0.298204,-0.0489 0.314708,-0.0723 0.268971,-0.38108 -0.529075,-0.43707 -0.462206,-1.49439 -0.224916,-2.50233 0.168808,-0.71705 0.494502,-1.69405 0.403494,-2.0918 -0.04406,-0.19255 -0.206429,0.44632 -0.446499,0.44924 -0.09054,-0.062 -0.182459,0.0154 -0.243724,-0.0195 -0.300321,-0.1707 -0.312245,-0.26124 -0.445838,-0.75306 0.0156,-0.47596 0.0608,-1.39594 0.332778,-2.23388 0.106966,-0.26923 0.339531,-0.35057 0.411265,-0.58982 0.0585,-0.19514 -0.03235,-0.52617 -0.03742,-0.89644 0.22839,-0.81407 0.128694,-1.26825 0.235458,-2.36255 0.01424,-0.17737 0.05482,-0.36396 0.09016,-0.41464 0.03534,-0.0507 0.02396,-0.26688 -0.0253,-0.48046 2.955981,-2.96484 3.983327,-0.28979 4.543025,0.68285 0.05371,0.12799 0.07621,0.26694 0.10455,0.36559 -0.0343,0.0312 0.08454,0.13024 0.264086,0.22005 3.133027,2.14057 3.592974,9.16461 1.286575,11.52549 -0.02711,0.1367 -0.402683,0.23897 -0.48795,0.37492 -0.07908,0.12609 0.130628,0.43742 0.158013,0.54206 0.0591,0.20562 -0.0142,0.53063 -0.374194,0.75637 -0.332245,0.20833 -1.638526,0.22211 -1.861083,0.0196 z"
       id="path1062"
       inkscape:connector-curvature="0"
       sodipodi:nodetypes="cccscsccsscsccsccccccccscscc" />
    <ellipse
       style="opacity:1;fill:#ffffff;fill-opacity:1;stroke:#7c7c7c;stroke-width:0.01241876;stroke-linecap:round;stroke-linejoin:round;stroke-miterlimit:4;stroke-dasharray:none;stroke-dashoffset:0;stroke-opacity:1;paint-order:normal"
       id="path1088"
       cx="13.256144"
       cy="279.80612"
       rx="0.36125332"
       ry="0.39127007" />
    <path
       style="opacity:1;fill:#7f1f29;fill-opacity:1;stroke:#da1e1e;stroke-width:0.00287479;stroke-linecap:round;stroke-linejoin:round;stroke-miterlimit:4;stroke-dasharray:none;stroke-dashoffset:0;stroke-opacity:1;paint-order:normal"
       d="m 10.901816,283.28969 c 1.083872,0.20271 1.277874,-0.44265 2.353036,-0.18835 0.625579,0.14796 1.155109,0.25814 1.352409,0.28137 l 0.07769,0.009 -0.07769,-0.009 c -0.128025,0.18577 -0.169375,0.39372 -0.116361,0.47359 0.194051,-0.46459 -0.744599,0.47155 -1.337418,0.47672 -0.242176,0.003 -0.533746,-0.19857 -0.86526,-0.21484 -0.259616,-0.0127 -0.559717,0.15872 -0.77337,0.16364 -0.260072,0.0748 -0.520393,0.12526 -0.635623,0.07 -0.120345,-0.0577 -0.08844,-0.22838 -0.0217,-0.49881 0.06396,-0.25916 -0.184105,-0.54802 0.04428,-0.56337 z"
       id="path888-2"
       inkscape:connector-curvature="0"
       sodipodi:nodetypes="cccccccscsscc" />
    <g
       style=""
       id="g947">
      <path
         sodipodi:nodetypes="ccccccccccccccccc"
         inkscape:connector-curvature="0"
         id="path888"
         d="m 13.329212,287.86347 -0.835523,0.0813 0.08099,-0.27112 c 0.315621,-1.05653 0.465029,-1.51659 0.83103,-2.55903 0.212962,-0.60654 0.378233,-1.12154 0.4221,-1.3153 l 0.01727,-0.0763 0.142484,0.12217 c 0.171276,0.14686 0.21411,0.164 0.299116,0.11968 0.126525,-0.0659 0.268073,-0.29234 0.43469,-0.69521 0.05748,-0.13897 0.113934,-0.2648 0.125464,-0.27963 0.01156,-0.0148 0.01494,-0.032 0.0076,-0.038 0.267321,-0.83988 0.488245,-0.0836 0.422121,0.55461 -0.440854,1.02924 -0.549063,0.66711 -0.656905,1.83834 -0.0396,0.43005 -0.183233,1.1392 -0.223305,1.62415 -0.01364,0.30691 -0.201531,0.77714 -0.220597,0.80003 -0.006,0.007 -0.386922,0.0498 -0.846454,0.0945 z"
         style="opacity:1;fill:#d44250;fill-opacity:1;stroke:#da1e1e;stroke-width:0.00287479;stroke-linecap:round;stroke-linejoin:round;stroke-miterlimit:4;stroke-dasharray:none;stroke-dashoffset:0;stroke-opacity:1;paint-order:normal" />
      <path
         sodipodi:nodetypes="ccccccccccccccccccccccccccccccccccccccccccccccccc"
         inkscape:connector-curvature="0"
         id="path890"
         d="m 17.868748,287.35677 c -0.04493,-0.0651 -0.174606,-0.24859 -0.288149,-0.40788 -0.259606,-0.36422 -0.678455,-1.2353 -0.888958,-1.5641 -0.637359,-0.99554 -0.963261,-1.22341 -1.203083,-1.52595 -0.06891,-0.0869 -0.197854,-0.23482 -0.286563,-0.32867 -0.155214,-0.16418 -0.25035,-0.25152 -0.611233,-0.56114 -0.09143,-0.0784 -0.211088,-0.18633 -0.26592,-0.23976 -0.113274,-0.11039 -0.225352,-0.29804 -0.183295,-0.30687 0.01465,-0.003 0.02324,0.004 0.01916,0.0149 -0.0042,0.0113 0.0027,0.0184 0.01504,0.0158 0.01226,-0.002 0.01913,0.005 0.01504,0.0157 -0.0041,0.0112 0.0018,0.0186 0.01301,0.0162 0.03148,-0.006 0.07289,0.0371 0.05137,0.0541 -0.012,0.009 -0.0062,0.015 0.01562,0.0145 0.01909,-3.2e-4 0.03161,0.008 0.02795,0.0181 -0.0038,0.0104 0.0024,0.0169 0.0136,0.0145 0.03057,-0.006 0.0732,0.0369 0.05249,0.0533 -0.01126,0.009 -8.89e-4,0.0149 0.02799,0.0161 0.03426,6.1e-4 0.04019,0.007 0.02336,0.0198 -0.01479,0.0117 -0.01359,0.0161 0.0035,0.0125 0.03596,-0.007 0.09557,0.041 0.07266,0.0592 -0.01201,0.009 -0.0023,0.0154 0.02741,0.0166 0.03349,4.6e-4 0.04003,0.007 0.02419,0.0192 -0.01584,0.0126 -0.0092,0.0178 0.02421,0.0191 0.02922,6.4e-4 0.03935,0.007 0.0278,0.0163 -0.01115,0.009 -0.0014,0.016 0.02511,0.0184 0.02784,10e-4 0.03638,0.0102 0.02419,0.0192 -0.01224,0.01 -0.0036,0.0166 0.02421,0.0191 0.03149,0.003 0.03724,0.008 0.0206,0.022 -0.01673,0.0133 -0.01127,0.0185 0.02074,0.0197 0.02521,8.8e-4 0.04053,0.01 0.03658,0.0207 -0.0038,0.0106 0.0072,0.0187 0.02447,0.0184 0.01728,-6.9e-4 0.02792,0.009 0.02361,0.0207 -0.0042,0.0117 7.36e-4,0.0196 0.01106,0.0175 0.01029,-0.002 0.13501,0.0744 0.277078,0.17009 0.447585,0.30157 0.712785,0.40982 0.848273,0.34623 0.04593,-0.0215 0.0543,-0.039 0.108061,-0.22426 0.10592,-0.36518 0.108233,-0.37016 0.190704,-0.41104 0.04072,-0.0201 0.08333,-0.0334 0.09468,-0.0293 0.01129,0.004 0.03566,0.0419 0.05403,0.0837 0.04941,0.11284 0.25311,0.43977 0.373301,0.59912 0.108265,0.14353 0.453121,0.50324 0.700388,0.73056 0.448563,0.41237 0.74472,0.75474 1.038625,1.20071 0.192718,0.29245 0.389816,0.61454 0.384612,0.62854 -0.0043,0.0114 -0.164315,0.26596 -0.388408,0.61768 -0.257073,0.40349 -0.384081,0.60365 -0.441568,0.69589 -0.03045,0.0488 -0.06448,0.0854 -0.07558,0.0811 -0.01106,-0.004 -0.05696,-0.0611 -0.101907,-0.12618 z"
         style="opacity:1;fill:#d44250;fill-opacity:1;stroke:#da1e1e;stroke-width:0.00287479;stroke-linecap:round;stroke-linejoin:round;stroke-miterlimit:4;stroke-dasharray:none;stroke-dashoffset:0;stroke-opacity:1;paint-order:normal" />
      <path
         sodipodi:nodetypes="cccccccccccccccccccccccccccccccccc"
         inkscape:connector-curvature="0"
         id="path892"
         d="m 18.190864,283.54449 c -0.08364,-0.0769 -0.307009,-0.10069 -0.839919,-0.0894 -0.424751,0.009 -1.14504,0.0442 -1.396073,0.0682 l -0.225164,0.0216 0.04263,-0.0743 c 0.05533,-0.0964 0.05274,-0.16833 -0.01631,-0.45329 l -0.05697,-0.23513 0.05419,-0.0109 c 0.02981,-0.006 0.142442,-0.001 0.250304,0.0109 0.231766,0.0257 0.421622,0.006 0.609132,-0.0631 0.116179,-0.10195 -0.514698,-0.12696 -0.661432,-0.11099 l -0.286731,0.0334 -0.01591,-0.0788 -0.01591,-0.0788 0.230264,-0.0921 c 0.282801,-0.11322 0.459159,-0.14169 0.69348,-0.11219 0.194438,0.0245 0.452109,-0.006 0.63963,-0.075 0.255646,-0.0945 0.195834,-0.13616 -0.190049,-0.13237 -0.562284,0.006 -0.957757,0.086 -1.325718,0.26974 l -0.102421,0.0512 -0.07043,-0.0526 c -0.06638,-0.0495 -0.06901,-0.055 -0.04568,-0.0944 0.07231,-0.12207 0.422728,-0.42669 0.677522,-0.58895 0.439655,-0.27999 1.191463,-0.57617 1.502325,-0.59185 0.0629,-0.004 0.119208,0.0104 0.17417,0.042 0.148202,0.0851 0.156512,0.10609 0.282462,0.71293 0.06218,0.29933 0.142241,0.63463 0.178014,0.7451 0.05762,0.17787 0.06336,0.21103 0.05016,0.28985 -0.01423,0.0852 -0.09097,0.23063 -0.125335,0.23757 -0.009,0.002 -0.02492,0.0333 -0.03538,0.07 -0.01562,0.0547 -0.01015,0.0982 0.03044,0.24257 0.02719,0.0967 0.04645,0.17623 0.0428,0.17662 -0.0037,4.4e-4 -0.02531,-0.0164 -0.04807,-0.0373 z"
         style="opacity:1;fill:#d44250;fill-opacity:1;stroke:#da1e1e;stroke-width:0.00287479;stroke-linecap:round;stroke-linejoin:round;stroke-miterlimit:4;stroke-dasharray:none;stroke-dashoffset:0;stroke-opacity:1;paint-order:normal" />
      <path
         sodipodi:nodetypes="ccccccccccccccccccccccccccccccccccccc"
         inkscape:connector-curvature="0"
         id="path894"
         d="m 12.336405,284.70029 -0.04619,-0.19593 -0.151514,-0.0934 c -0.143441,-0.0884 -0.153276,-0.0989 -0.184623,-0.19613 -0.01825,-0.0565 -0.05496,-0.22369 -0.08165,-0.37151 -0.02669,-0.14781 -0.08581,-0.39262 -0.131361,-0.54402 -0.04556,-0.1514 -0.09666,-0.36149 -0.113577,-0.46687 -0.02782,-0.17365 -0.02708,-0.19913 0.0083,-0.27194 0.02147,-0.0442 0.07122,-0.10692 0.110536,-0.13938 0.06621,-0.0547 0.09408,-0.0634 0.377961,-0.11784 0.313733,-0.0603 0.797727,-0.0939 1.036627,-0.0719 0.371828,0.0341 0.577376,0.065 0.758015,0.11373 0.197595,0.0533 0.560722,0.18818 0.567099,0.21976 0.0016,0.008 -0.01903,0.047 -0.03339,0.0745 -0.02338,0.0448 -0.07475,0.0347 -0.137311,0.0275 -0.244386,-0.0279 -0.749819,0.0448 -1.055863,0.1518 -0.17362,0.0607 -0.700049,0.31132 -0.721345,0.34339 -0.03669,0.0553 0.0451,0.0603 0.287989,0.0176 l 0.245581,-0.0435 0.241554,-0.13978 c 0.277977,-0.16091 0.405182,-0.19646 0.781586,-0.21842 0.308006,-0.0179 0.289804,-0.0212 0.304982,0.054 l 0.01322,0.0655 -0.179042,0.0494 c -0.287113,0.0792 -0.654355,0.23202 -0.907162,0.37739 -0.178742,0.10282 -0.0081,0.12747 0.316096,0.0456 0.19389,-0.0494 0.237921,-0.0677 0.403082,-0.17158 0.10195,-0.0641 0.232323,-0.1322 0.289697,-0.15134 l 0.104344,-0.0346 0.0712,0.29643 c 0.06101,0.25414 0.07883,0.30491 0.124673,0.35591 0.02942,0.0327 0.05409,0.0625 0.05482,0.0662 7.92e-4,0.004 -0.04262,0.0218 -0.09633,0.0403 -0.365195,0.12547 -1.544083,0.6496 -1.893586,0.84186 -0.168215,0.0925 -0.215496,0.12829 -0.261755,0.19796 l -0.05645,0.0851 z"
         style="opacity:1;fill:#d44250;fill-opacity:1;stroke:#da1e1e;stroke-width:0.00287479;stroke-linecap:round;stroke-linejoin:round;stroke-miterlimit:4;stroke-dasharray:none;stroke-dashoffset:0;stroke-opacity:1;paint-order:normal" />
      <path
         sodipodi:nodetypes="ccccccccccccccccccccccccccccccccccccccccccccccccccccccccccccccccc"
         inkscape:connector-curvature="0"
         id="path896"
         d="m 12.541318,285.14613 c -0.05928,-0.0111 -0.141091,-0.162 -0.158705,-0.25002 -0.02246,-0.11229 0.08511,-0.16928 0.278301,-0.27785 0.357038,-0.20065 1.436874,-0.66505 1.979934,-0.87029 l 0.04171,-0.0184 -0.03068,-0.0402 c -0.04432,-0.0498 -0.07637,-0.0942 -0.131267,-0.30629 -0.03689,-0.14229 -0.06609,-0.29559 -0.07217,-0.32276 -0.01105,-0.0492 0.01329,-0.058 -0.09456,-0.0201 -0.05952,0.0214 -0.186697,0.087 -0.282425,0.14696 -0.155917,0.0974 -0.196633,0.1264 -0.402956,0.17717 -0.238273,0.0589 -0.421465,0.0655 -0.428082,0.0325 -0.01152,-0.0576 0.754292,-0.4083 1.012738,-0.46174 0.159015,-0.0328 0.163419,-0.02 0.140982,-0.0976 -0.02374,-0.0822 7.13e-4,-0.0843 -0.382674,-0.0508 -0.332283,0.0289 -0.379488,0.0352 -0.69864,0.21425 l -0.241131,0.13526 -0.248274,0.0677 c -0.212476,0.0325 -0.330504,0.001 -0.308329,-0.0327 0.01623,-0.0247 0.350914,-0.19264 0.595514,-0.29965 0.195173,-0.0854 0.279701,-0.10812 0.540997,-0.16007 0.272865,-0.0546 0.360848,-0.0558 0.706318,-0.0626 0.06059,-0.001 0.07017,0.011 0.084,-0.0357 0.0087,-0.0293 0.05119,-0.0831 0.09436,-0.11969 0.07488,-0.0634 0.09521,-0.0701 0.439968,-0.14659 0.398974,-0.0885 0.426626,-0.088 0.549227,0.005 l 0.05242,0.0412 0.08868,-0.0433 c 0.132014,-0.0708 0.436809,-0.1807 0.602627,-0.21472 0.344217,-0.0705 1.08837,-0.0853 1.100052,-0.027 0.01474,0.0736 -0.453954,0.21277 -0.681764,0.18245 -0.188424,-0.0246 -0.561382,-2.4e-4 -0.790205,0.0897 -0.259005,0.10179 -0.255759,0.0834 -0.236585,0.17931 l 0.01666,0.0833 0.09103,-0.0168 c 0.05088,-0.004 0.159084,-0.0206 0.2336,-0.0291 0.302716,-0.0347 0.886443,-0.0574 0.784257,0.0147 0,0 0.02592,0.0468 -0.0218,0.0707 -0.134416,0.0677 -0.533342,0.13129 -0.733247,0.11173 -0.08886,-0.009 -0.211538,-0.0236 -0.25223,-0.0229 l -0.05938,0.0156 0.05216,0.26855 c 0.05907,0.29533 0.05895,0.30019 0.01989,0.39555 -0.0215,0.0525 -0.0482,0.0929 -0.045,0.095 0.003,10e-4 0.176454,-0.009 0.385042,-0.0239 0.484525,-0.0355 1.401536,-0.0949 1.666872,-0.0844 0.344999,0.0136 0.444372,0.0831 0.477911,0.25088 0.01591,0.0796 4.48e-4,0.11121 -0.03729,0.14879 -0.05686,0.0567 -0.249881,0.10804 -0.440087,0.11689 -0.335066,0.0158 -1.084662,-0.0294 -1.149632,-0.0692 -0.01171,-0.007 -0.0334,-0.0107 -0.04805,-0.008 -0.01463,0.003 -0.06058,-0.002 -0.102108,-0.0106 -0.04152,-0.009 -0.103367,-0.0218 -0.13745,-0.0288 -0.200446,-0.0412 -0.47074,-0.11622 -0.584983,-0.16223 l -0.131819,-0.053 -0.330013,0.0807 c -0.299907,0.0734 -0.409612,0.0886 -0.501053,0.0705 -0.01975,-0.004 -0.0768,0.0408 -0.151125,0.11846 -0.06569,0.0686 -0.123643,0.12565 -0.128767,0.1267 -0.0052,0.001 -0.04022,0.0337 -0.07796,0.0724 -0.10087,0.10369 -0.636058,0.51282 -0.683862,0.52279 -0.01419,0.003 -0.04823,0.0237 -0.07564,0.0461 -0.05929,0.0483 -0.555264,0.31236 -0.731596,0.38936 -0.136524,0.0596 -0.353599,0.10828 -0.423741,0.0957 z"
         style="opacity:1;fill:#7f1f29;fill-opacity:1;stroke:#d44250;stroke-width:0.00287437;stroke-linecap:round;stroke-linejoin:round;stroke-miterlimit:4;stroke-dasharray:none;stroke-dashoffset:0;stroke-opacity:1;paint-order:normal" />
    </g>
  </g>
</svg>
