<?xml version="1.0" encoding="UTF-8" standalone="no"?>
<!-- Created with Inkscape (http://www.inkscape.org/) -->

<svg
   xmlns:dc="http://purl.org/dc/elements/1.1/"
   xmlns:cc="http://creativecommons.org/ns#"
   xmlns:rdf="http://www.w3.org/1999/02/22-rdf-syntax-ns#"
   xmlns:svg="http://www.w3.org/2000/svg"
   xmlns="http://www.w3.org/2000/svg"
   xmlns:sodipodi="http://sodipodi.sourceforge.net/DTD/sodipodi-0.dtd"
   xmlns:inkscape="http://www.inkscape.org/namespaces/inkscape"
   width="100"
   height="100"
   viewBox="0 0 26.458333 26.458333"
   version="1.1"
   id="svg1100"
   inkscape:version="0.92.3 (2405546, 2018-03-11)"
   sodipodi:docname="for-marketers.svg">
  <defs
     id="defs1094" />
  <sodipodi:namedview
     id="base"
     pagecolor="#ffffff"
     bordercolor="#666666"
     borderopacity="1.0"
     inkscape:pageopacity="0.0"
     inkscape:pageshadow="2"
     inkscape:zoom="3.959798"
     inkscape:cx="82.071547"
     inkscape:cy="20.957175"
     inkscape:document-units="mm"
     inkscape:current-layer="layer1"
     showgrid="false"
     units="px"
     inkscape:window-width="1920"
     inkscape:window-height="1001"
     inkscape:window-x="-9"
     inkscape:window-y="-9"
     inkscape:window-maximized="1" />
  <metadata
     id="metadata1097">
    <rdf:RDF>
      <cc:Work
         rdf:about="">
        <dc:format>image/svg+xml</dc:format>
        <dc:type
           rdf:resource="http://purl.org/dc/dcmitype/StillImage" />
        <dc:title />
      </cc:Work>
    </rdf:RDF>
  </metadata>
  <g
     inkscape:label="Layer 1"
     inkscape:groupmode="layer"
     id="layer1"
     transform="translate(0,-270.54167)">
    <g
       id="g874"
       transform="matrix(0.47233827,0,0,0.54469579,-1.7648359,263.64967)">
      <line
         id="line841"
         y2="43.723"
         y1="43.723"
         x2="42.889"
         x1="21.082001"
         stroke-miterlimit="10"
         style="fill:#000000;fill-opacity:1;stroke:#1b1d1e;stroke-width:2.70000005;stroke-linecap:round;stroke-linejoin:round;stroke-miterlimit:10;stroke-opacity:1" />
      <line
         id="line843"
         y2="58.5"
         y1="58.5"
         x2="19.464001"
         x1="19.464001"
         stroke-miterlimit="10"
         style="fill:#000000;fill-opacity:1;stroke:#1b1d1e;stroke-width:0.00105884;stroke-linecap:round;stroke-linejoin:round;stroke-miterlimit:10;stroke-opacity:1" />
      <path
         id="path847"
         stroke-miterlimit="10"
         d="m 42.805,37.748 c 0,0 -0.008,0.861 -0.008,1.295 0,6.984 0.615,13.59 1.711,19.455 0,6.67e-4 0,0.0013 0,0.002 -1.703905,0.357594 -3.407809,0.715187 -5.111714,1.072781 -2.253751,0.05986 -4.507501,0.119718 -6.761252,0.179577 -2.404051,-0.054 -4.765626,0.03933 -7.212154,-0.162008 C 23.436587,59.2269 21.450293,58.86345 19.464,58.5 c 1.095,-5.865 1.71,-12.469 1.71,-19.453 0,-0.434 -0.007,-1.295 -0.007,-1.295 l 0.005,-0.004 c -3.023,-0.861 -4.908,-2.082 -4.908,-3.436 h 31.444 c 0.001,1.352 -1.882,2.573 -4.903,3.436 -2.400602,0.685765 -5.520374,1.145836 -8.983444,1.267081 -0.602132,0.02108 -1.214643,0.03192 -1.835556,0.03192 -1.445,0 -9.489,-1.186 -10.819,-1.295"
         inkscape:connector-curvature="0"
         style="fill:#4d4d4d;fill-opacity:1;stroke:#4d4d4d;stroke-width:2.70000005;stroke-linecap:round;stroke-linejoin:round;stroke-miterlimit:10;stroke-opacity:1"
         sodipodi:nodetypes="csccccccscccccssc" />
    </g>
    <path
       sodipodi:nodetypes="cccsscssssssccsscscssccssssscsssssc"
       inkscape:connector-curvature="0"
       id="path1052-1-2-7-3"
       d="m 9.3970356,282.61805 c 0.1828317,0.0157 0.5905177,-1.30183 0.7885954,-1.52748 0.198084,-0.22565 0.373237,-0.40618 0.452398,-0.49437 0.252626,-0.28146 0.08804,-0.64332 -0.288111,-0.84083 -0.182347,-0.0957 -1.1631924,-0.67316 -2.0335724,-1.57091 -1.1424965,-1.17843 -2.1893748,-2.78721 -2.2521299,-2.89554 -0.1105718,-0.19086 -0.7664396,-1.31638 -0.8689026,-1.50211 -0.2128195,-0.38575 0.2054542,-1.38627 0.7856558,-1.11588 0,0 0.2489139,0.0605 0.5340236,0.20026 0.5171907,0.25357 1.2089298,0.55909 1.4022907,0.64737 0.6787845,0.30993 1.6203721,0.83254 2.5651798,1.79277 0.837205,0.85085 1.778372,2.35115 1.874959,2.52049 0.205574,0.36042 0.424706,0.72499 0.486958,0.81014 0.06226,0.0852 0.180519,0.2546 0.262807,0.37656 0.02722,0.0404 0.0848,0.0591 0.157477,0.065 0.154612,0.0124 0.377576,-0.0341 0.522105,-0.0568 0.338047,-0.0531 0.333309,-0.07 0.309892,-0.23464 -0.05721,-0.40209 -0.02601,-1.21545 -0.03947,-1.71434 -0.0041,-0.14945 -0.01628,-0.43586 0.0071,-0.63919 0.01156,-0.10042 -0.03671,-0.94913 0.03966,-1.72586 0.07825,-0.79595 0.281355,-1.52035 0.307975,-1.62385 0.06128,-0.23828 0.12659,-0.49201 0.125692,-0.50815 0.07645,-0.34202 0.731467,-1.41314 1.163148,-1.84962 0.32151,-0.32509 1.351718,0.0126 1.537652,0.7452 0,0 0.560825,1.65835 0.512043,3.22154 -0.02012,0.64459 -0.05469,1.47322 -0.04969,1.70912 0.0026,0.12055 0.0035,0.0615 0.0026,0.12055 -0.0014,0.0937 -0.0577,0.53752 -0.06456,0.60184 -0.02526,0.23656 -0.374913,1.43821 -0.456977,1.60754 -0.241552,0.49841 -0.500522,1.09564 -0.330279,1.60062 0.250544,0.74316 1.140019,1.88205 1.28821,2.1577 0.0098,0.0182 -0.3215,0.48935 -1.218423,0.66821 -0.802419,0.16002 -1.832755,0.31091 -2.849584,0.32125 -1.193276,0.0122 -2.891569,-0.19721 -3.726462,-0.35681 -0.7224467,-0.13809 -0.9482384,-0.50976 -0.9482384,-0.50976 z"
       style="opacity:1;fill:#7c7c7c;fill-opacity:1;stroke:none;stroke-width:0.7506749;stroke-linecap:square;stroke-linejoin:round;stroke-miterlimit:4;stroke-dasharray:none;stroke-dashoffset:0;stroke-opacity:1;paint-order:fill markers stroke" />
    <path
       id="path849-1-0-3"
       stroke-miterlimit="10"
       d="m 14.994771,279.11001 c -0.102983,-0.78271 -0.297761,-2.60077 -0.03966,-4.00728 0.0594,-0.34556 0.317102,-1.48295 0.660322,-2.13905 0.2687,-0.51365 0.662501,-0.55679 0.811852,-0.54017 0.164116,0.0186 0.194316,1.53402 0.205314,2.13349 0.0063,0.34159 -0.01891,2.42947 -0.215444,3.05789 -0.155887,0.49843 -0.268644,0.96613 -0.368636,1.34618 -0.05549,0.21091 -0.08224,0.42215 -0.141374,0.55418"
       inkscape:connector-curvature="0"
       style="fill:#ffffff;fill-opacity:1;stroke:none;stroke-width:0.59695905;stroke-linecap:round;stroke-linejoin:round;stroke-miterlimit:10;stroke-opacity:1"
       sodipodi:nodetypes="ccscsssc" />
    <path
       id="path849-1-0-3-1"
       stroke-miterlimit="10"
       d="m 11.241641,279.90851 c -0.58965,-0.41236 -1.9803014,-1.31756 -2.8025984,-2.28441 -0.2580097,-0.21484 -1.8074138,-2.06597 -2.0307032,-2.69119 -0.1748083,-0.48947 -0.1230572,-0.87385 -0.017701,-0.96087 0.076241,-0.0627 1.1982599,0.49716 2.0058542,1.13114 0.4214305,0.33083 0.790024,0.65641 0.946696,0.75015 0.2677377,0.16018 1.5410154,1.65477 1.8382854,2.16757 0.235786,0.40674 0.433409,0.81273 0.625102,1.11058 0.106374,0.16529 0.2311,0.31207 0.2823,0.43142"
       inkscape:connector-curvature="0"
       style="fill:#ffffff;fill-opacity:1;stroke:none;stroke-width:0.54144239;stroke-linecap:round;stroke-linejoin:round;stroke-miterlimit:10;stroke-opacity:1"
       sodipodi:nodetypes="ccscssssc"
       inkscape:transform-center-x="-0.33243052"
       inkscape:transform-center-y="0.10758031" />
    <path
       id="path847-8"
       stroke-miterlimit="10"
       d="m 7.5074525,287.96898 c -0.1045691,-0.0243 -0.1308802,-0.29242 -0.1116611,-0.52118 0.023273,-0.27696 0.1843752,-0.74293 0.1748565,-0.94647 -0.016996,-0.36353 -0.5536627,-1.52195 -0.1890926,-1.69381 0.6023042,-0.28395 2.311231,0.56344 2.9122777,0.62709 0.877226,0.0929 1.660754,0.23791 2.497377,0.2795 0.439336,0.0218 0.879975,8e-4 1.319537,-0.016 0.567653,-0.0215 1.134016,-0.0693 1.700722,-0.10857 1.006631,-0.0696 2.734833,-1.07434 3.39441,-0.7427 0.365205,0.18363 -0.06096,0.91898 -0.03862,1.62139 0.0239,0.7511 0.637851,1.57451 -0.14335,1.51557 -0.361705,-0.0273 -1.191183,0.17278 -2.194397,0.25211 -1.163496,0.092 -2.541096,0.0706 -3.383576,0.11905"
       inkscape:connector-curvature="0"
       style="fill:#d44250;fill-opacity:1;stroke:none;stroke-width:2.32651782;stroke-linecap:round;stroke-linejoin:round;stroke-miterlimit:10;stroke-opacity:1"
       sodipodi:nodetypes="cssssaasssssc" />
  </g>
</svg>
