<?xml version="1.0" encoding="UTF-8" standalone="no"?>
<!-- Created with Inkscape (http://www.inkscape.org/) -->

<svg
   xmlns:dc="http://purl.org/dc/elements/1.1/"
   xmlns:cc="http://creativecommons.org/ns#"
   xmlns:rdf="http://www.w3.org/1999/02/22-rdf-syntax-ns#"
   xmlns:svg="http://www.w3.org/2000/svg"
   xmlns="http://www.w3.org/2000/svg"
   xmlns:sodipodi="http://sodipodi.sourceforge.net/DTD/sodipodi-0.dtd"
   xmlns:inkscape="http://www.inkscape.org/namespaces/inkscape"
   width="100"
   height="100"
   viewBox="0 0 26.458333 26.458334"
   version="1.1"
   id="svg1044"
   inkscape:version="0.92.3 (2405546, 2018-03-11)"
   sodipodi:docname="small-business.svg">
  <defs
     id="defs1038">
    <pattern
       y="0"
       x="0"
       height="6"
       width="6"
       patternUnits="userSpaceOnUse"
       id="EMFhbasepattern" />
  </defs>
  <sodipodi:namedview
     id="base"
     pagecolor="#ffffff"
     bordercolor="#666666"
     borderopacity="1.0"
     inkscape:pageopacity="0.0"
     inkscape:pageshadow="2"
     inkscape:zoom="3.959798"
     inkscape:cx="118.2822"
     inkscape:cy="33.754345"
     inkscape:document-units="mm"
     inkscape:current-layer="layer1"
     showgrid="false"
     units="px"
     inkscape:window-width="1920"
     inkscape:window-height="1001"
     inkscape:window-x="-9"
     inkscape:window-y="-9"
     inkscape:window-maximized="1"
     inkscape:snap-object-midpoints="true" />
  <metadata
     id="metadata1041">
    <rdf:RDF>
      <cc:Work
         rdf:about="">
        <dc:format>image/svg+xml</dc:format>
        <dc:type
           rdf:resource="http://purl.org/dc/dcmitype/StillImage" />
        <dc:title />
      </cc:Work>
    </rdf:RDF>
  </metadata>
  <g
     inkscape:label="Layer 1"
     inkscape:groupmode="layer"
     id="layer1"
     transform="translate(0,-270.54165)">
    <path
       style="opacity:1;fill:none;fill-opacity:1;stroke:#d44250;stroke-width:0.625;stroke-linecap:square;stroke-linejoin:round;stroke-miterlimit:4;stroke-dasharray:0.625,1.875;stroke-dashoffset:0;stroke-opacity:1;paint-order:fill markers stroke"
       d="m 2.7675749,296.64501 c -0.1833008,-0.0181 -0.7578839,-0.2031 -0.851875,-0.26687 -0.2329854,-0.15808 -0.5091474,-0.29374 -0.690042,-0.5142 -0.1363085,-0.16613 -0.3640529,-0.72916 -0.3775991,-0.80438 -0.027625,-0.15341 -0.052996,-0.31367 -0.058131,-0.47225 -0.00493,-0.15331 -0.019283,-0.31917 0.029857,-0.46165 0.00597,-0.0173 0.069743,-0.15304 0.1617564,-0.2403 0.124853,-0.11841 0.5258596,-0.35226 0.5863384,-0.38717 0.090158,-0.052 0.2109307,-0.0529 0.2863149,-0.12468 0.066316,-0.0631 -0.2279614,-0.94458 -0.322666,-1.96206 -0.089434,-0.96088 0.01856,-2.04091 0.1327757,-2.73912 0.2019757,-1.23484 0.8462368,-2.37055 0.8633325,-2.37055 0.037004,0 0.6675985,-1.09013 1.2426082,-1.71415 0.089581,-0.0972 1.3700622,-1.16512 1.4077717,-1.16512 0.037706,0 1.9415697,-1.08934 2.2939386,-1.16626 0.1179059,-0.0257 0.2683609,-0.0682 0.3343458,-0.0944 0.2822948,-0.11213 1.2017602,-0.31422 2.092283,-0.32454 0.715053,-0.008 1.439856,0.16393 1.586788,0.17694 0.329914,0.0292 0.707817,0.0855 0.839785,0.12518 0.131966,0.0396 0.527866,0.11271 0.879777,0.16243 0.351912,0.0497 0.931039,0.13451 1.286947,0.18845 0.586067,0.0889 0.671448,0.0845 0.905164,-0.0461 0.14193,-0.0793 0.395505,-0.28777 0.476262,-0.39191 0.08076,-0.10417 0.173901,-0.4053 0.206983,-0.66924 0.03308,-0.26393 0.07178,-0.56499 0.08599,-0.66902 0.04534,-0.33197 -0.02399,-0.3931 -0.398018,-0.35093 -0.419298,0.0473 -1.821817,-0.003 -2.483344,-0.18778 -0.263936,-0.0735 -0.839787,-0.28547 -0.839787,-0.28547 -0.617775,-0.15297 -1.863527,-0.54127 -2.039484,-0.62626 -0.175954,-0.085 -1.2167438,-0.62961 -1.3842106,-0.71488 -0.3478092,-0.17707 -0.4753345,-1.07037 0.08454,-1.16051 0,0 0.1494741,-0.12768 0.4280308,-0.16692 0.5052988,-0.0712 1.1644218,-0.19099 1.3500968,-0.22236 0.651815,-0.11016 1.602073,-0.195 2.772225,0.0395 1.036875,0.20775 2.472831,0.84007 2.627833,0.91623 0.329914,0.16211 0.671828,0.32051 0.759805,0.352 0.08798,0.0314 0.258934,0.0969 0.379899,0.14549 0.125167,0.0502 0.219951,0.0563 0.219951,0.014 0,-0.0409 0.113895,-0.18065 0.253098,-0.31074 0.221483,-0.207 0.238966,-0.25212 0.139966,-0.3612 -0.241824,-0.26641 -0.62577,-0.88204 -0.912937,-1.2052 -0.08798,-0.099 -0.228608,-0.31154 -0.312514,-0.47228 -0.08391,-0.16073 -1.092131,-2.01294 -1.246572,-2.30189 -0.01986,-0.0371 -0.276149,-0.77347 -0.292292,-0.79465 -0.113953,-0.2888 -0.166079,-1.39986 -0.0665,-1.9345 0.07417,-0.39821 0.997463,-0.66272 1.497989,-0.21792 0,0 1.186054,1.28974 1.897735,2.2374 0.478578,0.63728 0.410641,0.74471 0.910842,1.28769 0.03909,0.0425 0.209972,0.20698 0.312204,0.39895 0.09907,0.18604 0.541123,1.24762 0.565117,1.41258 0.07062,0.48556 0.05942,1.06794 0.435281,1.35361 0.553147,0.42042 1.645804,0.58289 1.891497,0.71135 0.388712,0.20326 2.366023,2.71554 2.84087,3.55625 0.07287,0.12901 0.05477,0.28858 0.04436,0.31281 -0.01866,0.0434 0.0046,0.47455 -0.120711,0.65483 -0.242888,0.34921 -0.732507,0.53535 -0.984559,0.59293 -0.123934,0.0283 -0.899527,0.23851 -1.088228,0.38528 -0.153677,0.11952 -0.274236,0.36713 -0.312363,0.44369 -0.156672,0.31461 -0.08056,0.45362 -0.03703,1.57649 0.05046,1.30201 -0.03108,1.75647 -0.414434,2.30975 -0.09144,0.13196 -0.237281,0.38045 -0.324101,0.55219 -0.08681,0.17173 -0.229837,0.39286 -0.317814,0.49139 -0.08798,0.0985 -0.303923,0.3458 -0.479881,0.54946 -0.394935,0.45714 -1.360929,1.24575 -1.460237,1.33107 -0.09932,0.0853 -0.579243,0.42416 -0.579129,1.0206 1.36e-4,0.81565 -0.160072,2.63881 -0.160072,2.75287 0,0.13403 0.01427,0.28238 0.09511,0.34811 0.05945,0.0483 0.176564,0.0466 0.269051,0.0466 0.193309,0 0.740908,0.2666 0.919678,0.45493 0.135299,0.14254 0.172695,0.77701 0.02324,0.90078 -0.135793,0.11246 -1.450888,0.16444 -2.11226,0.10987 -0.216418,-0.0178 -0.418863,-0.15897 -0.461559,-0.19731 -0.03954,-0.0355 -0.669369,-0.92193 -1.053146,-1.70823 -0.287878,-0.5898 -0.505177,-1.14193 -0.516095,-1.19377 -0.03548,-0.16839 -0.09286,-0.21995 -0.244772,-0.21995 -0.05272,0 -0.65538,0.34127 -1.353462,0.58711 -0.747066,0.26309 -1.592629,0.4323 -1.649176,0.44438 -0.325602,0.0696 -0.540862,0.12897 -0.460804,0.20902 0.02337,0.0234 0.290661,0.048 0.594008,0.0546 0.30335,0.006 2.220777,0.33377 2.257591,0.34467 0.01788,0.005 0.335984,0.0877 0.595942,0.24726 0.26324,0.1616 0.46831,0.40045 0.477424,0.41103 0.190431,0.22079 0.366318,0.68603 0.201066,0.85128 -0.09488,0.0948 -0.825855,0.11848 -4.39369,0.14179 -3.1892921,0.0209 -4.3289712,0.004 -4.4725609,-0.067 -0.1059788,-0.0522 -0.3906411,-0.12947 -0.6325814,-0.1717 -0.2419351,-0.0422 -0.637836,-0.13766 -0.8797774,-0.21203 -0.5770491,-0.17739 -0.6942319,-0.19219 -1.0397344,-0.13853 -0.1019368,0.0158 -0.1870169,0.0872 -0.2799275,0.132 -0.093721,0.0453 -0.1821176,0.1027 -0.2799306,0.13819 -0.063686,0.0232 -0.5889373,0.20246 -0.6531668,0.21675 -0.491554,0.1094 -1.0051502,0.16562 -1.5062848,0.11605 z"
       id="path1052-6"
       inkscape:connector-curvature="0"
       sodipodi:nodetypes="ccscscsasssscsccscccsccccssccssssssccsscscsccsssscssssscscsccccccsssccssscsssccssscsscsaaaac" />
    <path
       style="opacity:1;fill:#7c7c7c;fill-opacity:1;stroke:none;stroke-width:0.47093704;stroke-linecap:square;stroke-linejoin:round;stroke-miterlimit:4;stroke-dasharray:none;stroke-dashoffset:0;stroke-opacity:1;paint-order:fill markers stroke"
       d="m 5.426217,296.97426 c -0.1298026,-0.0129 -0.5366934,-0.14382 -0.6032506,-0.18897 -0.1649878,-0.11194 -0.3605517,-0.208 -0.4886497,-0.36412 -0.09653,-0.11764 -0.2578032,-0.51636 -0.2673952,-0.56962 -0.019559,-0.10859 -0.037534,-0.22213 -0.041164,-0.33442 -0.00354,-0.10858 -0.013648,-0.22604 0.021141,-0.32693 0.0042,-0.0122 0.049389,-0.10836 0.1145456,-0.17016 0.088416,-0.0839 0.3723852,-0.24945 0.4152144,-0.27418 0.063844,-0.0369 0.1493665,-0.0375 0.2027508,-0.0883 0.046965,-0.0447 -0.1614303,-0.6689 -0.2284944,-1.38942 -0.063335,-0.68045 0.01316,-1.44527 0.094029,-1.93971 0.1430264,-0.87443 0.5992602,-1.67867 0.6113661,-1.67867 0.0262,0 0.4727561,-0.77199 0.8799458,-1.21388 0.063435,-0.0689 0.9702043,-0.82508 0.9969087,-0.82508 0.026697,0 1.3749124,-0.77141 1.6244428,-0.82588 0.083491,-0.0183 0.1900384,-0.0484 0.2367645,-0.0668 0.1999051,-0.0793 0.8510211,-0.22251 1.4816402,-0.22982 0.506361,-0.005 1.01963,0.11608 1.123676,0.12529 0.233627,0.0207 0.501241,0.0605 0.594694,0.0886 0.09345,0.0281 0.373805,0.0799 0.623008,0.11502 0.249205,0.0352 0.65931,0.0953 0.911346,0.13345 0.415023,0.0628 0.475483,0.0599 0.640987,-0.0326 0.100508,-0.0561 0.280076,-0.20379 0.337266,-0.27753 0.05719,-0.0737 0.123144,-0.28701 0.146575,-0.47392 0.02343,-0.18691 0.05082,-0.40011 0.06089,-0.47377 0.0321,-0.23508 -0.017,-0.27837 -0.281856,-0.24851 -0.296921,0.0335 -1.29011,-0.002 -1.758569,-0.13297 -0.186902,-0.0521 -0.594691,-0.20216 -0.594691,-0.20216 -0.437473,-0.10835 -1.319649,-0.38329 -1.444252,-0.44347 -0.1246,-0.0602 -0.861632,-0.44588 -0.9802232,-0.50624 -0.2462996,-0.1254 -0.3366074,-0.75799 0.059865,-0.82181 0,0 0.1058492,-0.0904 0.3031092,-0.11821 0.357827,-0.0504 0.824579,-0.13525 0.956065,-0.15746 0.461581,-0.078 1.134499,-0.13809 1.963137,0.028 0.734258,0.14713 1.751125,0.5949 1.860888,0.64882 0.233628,0.1148 0.475754,0.22697 0.538054,0.24927 0.06231,0.0224 0.183363,0.0686 0.269026,0.10309 0.08864,0.0356 0.155753,0.0398 0.155753,0.01 0,-0.0289 0.08066,-0.12795 0.179233,-0.22007 0.156842,-0.14659 0.169223,-0.17854 0.09912,-0.25578 -0.171246,-0.18865 -0.443136,-0.62461 -0.646489,-0.85345 -0.06231,-0.07 -0.161891,-0.22061 -0.22131,-0.33444 -0.05942,-0.11382 -0.773386,-1.42547 -0.882754,-1.63008 -0.01405,-0.0263 -0.195551,-0.54773 -0.206982,-0.56273 -0.0807,-0.20451 -0.11761,-0.9913 -0.0471,-1.36992 0.05252,-0.28198 0.706351,-0.46929 1.060796,-0.15431 0,0 0.839899,0.91333 1.343871,1.58441 0.338907,0.45128 0.290796,0.52736 0.645011,0.91188 0.02768,0.0301 0.14869,0.14656 0.221085,0.28251 0.07015,0.13173 0.383193,0.8835 0.400185,1.0003 0.05001,0.34385 0.04208,0.75627 0.308241,0.95856 0.391709,0.29771 1.254507,0.57601 1.428492,0.66698 0.16444,0.086 0.699179,0.64442 1.199893,1.29652 0.119079,0.15507 0.227267,0.30268 0.323368,0.43931 0.176241,0.25054 0.311843,0.46416 0.399452,0.61928 0.05161,0.0914 0.03878,0.20435 0.03141,0.2215 -0.01321,0.0307 0.0033,0.33606 -0.08549,0.46374 -0.171998,0.24727 -0.518721,0.3791 -0.697214,0.41985 -0.08776,0.0201 -0.636993,0.16892 -0.770621,0.27285 -0.108827,0.0847 -0.194196,0.25997 -0.221196,0.31419 -0.110947,0.2228 -0.05704,0.32123 -0.02624,1.1164 0.03573,0.92201 -0.022,1.24384 -0.293479,1.63563 -0.06476,0.0935 -0.168028,0.26942 -0.229511,0.39104 -0.06148,0.12161 -0.162755,0.2782 -0.225057,0.34797 -0.06229,0.0697 -0.215223,0.24487 -0.339827,0.3891 -0.27967,0.32372 -0.963733,0.88217 -1.03406,0.94257 -0.07033,0.0604 -0.410187,0.30037 -0.410106,0.72276 1.13e-4,0.5776 -0.113356,1.86865 -0.113356,1.94942 0,0.0948 0.01003,0.19997 0.06735,0.24652 0.04211,0.0342 0.125032,0.033 0.190525,0.033 0.136895,0 0.52467,0.18879 0.651266,0.32216 0.09581,0.10097 0.122295,0.55023 0.01645,0.63789 -0.09617,0.0796 -1.027441,0.11644 -1.49579,0.0778 -0.153253,-0.0126 -0.296612,-0.11257 -0.32685,-0.13971 -0.028,-0.0251 -0.474008,-0.65287 -0.74578,-1.20968 -0.203857,-0.41766 -0.357735,-0.80865 -0.365473,-0.84536 -0.02513,-0.11925 -0.06576,-0.15576 -0.173332,-0.15576 -0.03734,0 -0.464105,0.24167 -0.958446,0.41576 -0.529036,0.1863 -1.127815,0.30613 -1.167857,0.31469 -0.230574,0.0492 -0.38301,0.0914 -0.326316,0.14801 0.01654,0.0165 0.205829,0.034 0.420643,0.0388 0.214816,0.004 1.572634,0.23637 1.598702,0.24408 0.01265,0.003 0.237927,0.0621 0.422015,0.17509 0.186412,0.11443 0.331633,0.28359 0.338088,0.29107 0.134851,0.15636 0.259405,0.48582 0.142383,0.60283 -0.0672,0.0672 -0.584825,0.0839 -3.111374,0.10045 -2.258483,0.0147 -3.0655409,0.002 -3.1672219,-0.0473 -0.075043,-0.037 -0.276631,-0.0917 -0.4479612,-0.12158 -0.1713268,-0.0299 -0.4516814,-0.0975 -0.6230103,-0.15015 -0.4086352,-0.12562 -0.4916194,-0.1361 -0.7362841,-0.098 -0.07219,0.0113 -0.1324358,0.0618 -0.1982304,0.0935 -0.066368,0.032 -0.1289658,0.0727 -0.1982303,0.0978 -0.045094,0.0164 -0.4170541,0.14338 -0.4625375,0.1535 -0.3480928,0.0775 -0.7117925,0.11729 -1.0666703,0.0823 z"
       id="path1052"
       inkscape:connector-curvature="0"
       sodipodi:nodetypes="ccscscsasssscsccscccsccccssccssssssccsscscsccsssscssssssscscsccccccsssccssscsssccssscsscsaaaacc" />
  </g>
</svg>
