<?xml version="1.0" encoding="UTF-8" standalone="no"?>
<!-- Created with Inkscape (http://www.inkscape.org/) -->

<svg
   xmlns:dc="http://purl.org/dc/elements/1.1/"
   xmlns:cc="http://creativecommons.org/ns#"
   xmlns:rdf="http://www.w3.org/1999/02/22-rdf-syntax-ns#"
   xmlns:svg="http://www.w3.org/2000/svg"
   xmlns="http://www.w3.org/2000/svg"
   xmlns:sodipodi="http://sodipodi.sourceforge.net/DTD/sodipodi-0.dtd"
   xmlns:inkscape="http://www.inkscape.org/namespaces/inkscape"
   width="100"
   height="100"
   viewBox="0 0 26.458333 26.458334"
   version="1.1"
   id="svg1044"
   inkscape:version="0.92.3 (2405546, 2018-03-11)"
   sodipodi:docname="software-devs.svg">
  <defs
     id="defs1038">
    <pattern
       y="0"
       x="0"
       height="6"
       width="6"
       patternUnits="userSpaceOnUse"
       id="EMFhbasepattern" />
  </defs>
  <sodipodi:namedview
     id="base"
     pagecolor="#ffffff"
     bordercolor="#666666"
     borderopacity="1.0"
     inkscape:pageopacity="0.0"
     inkscape:pageshadow="2"
     inkscape:zoom="2.8"
     inkscape:cx="20.618594"
     inkscape:cy="7.8495629"
     inkscape:document-units="mm"
     inkscape:current-layer="layer1"
     showgrid="false"
     units="px"
     inkscape:window-width="1920"
     inkscape:window-height="1001"
     inkscape:window-x="-9"
     inkscape:window-y="-9"
     inkscape:window-maximized="1" />
  <metadata
     id="metadata1041">
    <rdf:RDF>
      <cc:Work
         rdf:about="">
        <dc:format>image/svg+xml</dc:format>
        <dc:type
           rdf:resource="http://purl.org/dc/dcmitype/StillImage" />
        <dc:title />
      </cc:Work>
    </rdf:RDF>
  </metadata>
  <g
     inkscape:label="Layer 1"
     inkscape:groupmode="layer"
     id="layer1"
     transform="translate(0,-270.54165)">
    <path
       id="path1600"
       d="m 4.6095532,284.81638 c -1.3433194,-1.31924 -1.4969278,-1.48187 -1.4969278,-1.58729 0,-0.0693 0.1957749,-0.29216 0.6355169,-0.71684 0.3493833,-0.34035 0.8252681,-0.81322 1.0571858,-1.04816 0.337336,-0.34636 0.4457656,-0.4307 0.5511839,-0.4307 0.1144522,0 0.1325241,0.0181 0.1325241,0.13253 0,0.1536 -0.03614,0.19577 -0.8162321,0.94876 -0.3072168,0.29818 -0.683708,0.67768 -0.8403277,0.84634 l -0.2831212,0.30421 0.4457656,0.42769 c 0.243966,0.23493 0.5692537,0.5542 0.7228621,0.71083 0.1505961,0.15662 0.3885385,0.39154 0.524076,0.52105 0.1385477,0.13253 0.2469773,0.27709 0.2469773,0.3283 0,0.0934 -0.1024027,0.21987 -0.1746916,0.21987 -0.021083,0 -0.337336,-0.29516 -0.7047913,-0.65659 z"
       style="fill:#4d4d4d;fill-opacity:1;fill-rule:nonzero;stroke:#4d4d4d;stroke-width:0.22288263px;stroke-linecap:square;stroke-linejoin:round;stroke-miterlimit:4;stroke-dasharray:none;stroke-opacity:1"
       inkscape:connector-curvature="0" />
    <path
       id="path1602"
       d="m 6.3414111,285.36153 c -0.04518,-0.0542 1.5541549,-3.95767 1.5541549,-4.00586 0,-0.0753 0.1927636,-0.2771 0.2650504,-0.2771 0.033137,0 0.09036,0.0392 0.1265004,0.0904 0.060236,0.0783 0.05421,0.12951 -0.057223,0.4307 -0.066263,0.18975 -1.3884982,3.46674 -1.4095825,3.5089 -0.024097,0.0422 -0.069277,0.12952 -0.1024028,0.19879 -0.069276,0.13855 -0.2740853,0.16867 -0.3764912,0.0542 z"
       style="fill:#4d4d4d;fill-opacity:1;fill-rule:nonzero;stroke:#4d4d4d;stroke-width:0.1957753px;stroke-linecap:square;stroke-linejoin:round;stroke-miterlimit:4;stroke-dasharray:none;stroke-opacity:1"
       inkscape:connector-curvature="0" />
    <path
       id="path1604"
       d="m 9.1635884,285.36756 c -0.1445724,-0.10244 -0.093373,-0.22892 0.2108345,-0.52709 0.1626444,-0.15963 0.4186574,-0.41565 0.5692544,-0.57226 0.1536077,-0.15663 0.4548017,-0.45179 0.6716607,-0.66264 l 0.397573,-0.37648 -0.256013,-0.28915 c -0.138549,-0.15662 -0.524076,-0.54516 -0.8523767,-0.86141 -0.7529812,-0.72286 -0.8433388,-0.8343 -0.8041836,-0.97887 0.024097,-0.0873 0.060236,-0.11145 0.1656556,-0.11145 0.075293,0 0.1445725,0.0211 0.1536084,0.0422 0.021083,0.0632 0.6776833,0.7319 1.4125943,1.44272 0.394563,0.38251 0.644551,0.6596 0.644551,0.71382 0,0.0512 -0.180715,0.26806 -0.42468,0.50901 -1.2921177,1.27706 -1.7619781,1.73186 -1.7830613,1.73186 -0.012043,0 -0.060236,-0.0272 -0.1054162,-0.0603 z"
       style="fill:#4d4d4d;fill-opacity:1;fill-rule:nonzero;stroke:#4d4d4d;stroke-width:0.22288263px;stroke-linecap:square;stroke-linejoin:round;stroke-miterlimit:4;stroke-dasharray:none;stroke-opacity:1"
       inkscape:connector-curvature="0" />
    <path
       id="path1606"
       d="m 4.597506,290.19567 c -0.033137,-0.0151 -0.060236,-0.0783 -0.060236,-0.14457 0,-0.15361 0.1475837,-0.2259 0.4638365,-0.2289 0.3945621,-0.006 0.7559937,-0.19276 0.8945425,-0.46083 0.060236,-0.11445 0.1054162,-0.31323 0.1204768,-0.53612 0.012043,-0.19578 0.039153,-0.44877 0.057223,-0.56624 l 0.030124,-0.21084 H 3.3987611 c -2.94566536,0 -2.87940225,0.006 -3.09325014,-0.25299 -0.0933732,-0.11145 -0.0963759,-0.16265 -0.0963759,-4.47573 0,-4.31007 0.002981,-4.36128 0.0963759,-4.47573 0.2228828,-0.26806 -0.22589409,-0.253 6.91538624,-0.253 7.1412818,0 6.6894908,-0.0151 6.9153848,0.253 0.09337,0.11445 0.09638,0.16566 0.09638,4.47573 0,4.31308 -0.003,4.36428 -0.09638,4.47573 -0.216858,0.25902 -0.147583,0.25299 -3.093249,0.25299 H 8.3383225 l 0.030124,0.21084 c 0.01807,0.11747 0.04518,0.37046 0.057223,0.56624 0.039153,0.56022 0.1957749,0.78009 0.6776834,0.94273 0.09036,0.0301 0.253002,0.0542 0.3614316,0.0542 0.2891448,0.003 0.4367298,0.0783 0.4367298,0.2259 0,0.0693 -0.03012,0.13252 -0.07229,0.14758 -0.09036,0.0331 -5.1473836,0.0301 -5.2317176,0 z m 3.5841936,-0.6837 c -0.015067,-0.0361 -0.048193,-0.10542 -0.069277,-0.15361 -0.042166,-0.0934 -0.075293,-0.37047 -0.1204769,-0.96683 l -0.024097,-0.34336 H 7.2208919 6.4739331 l -0.024097,0.32228 c -0.078306,0.94274 -0.084333,0.97587 -0.2017995,1.17465 -0.099389,0.16566 -0.6897306,0.2771 -0.5963617,0.31625 0.024097,0.009 3.1293931,0.0301 3.1685483,0.0392 0.243966,0.0451 -0.4096217,-0.0512 -0.3493844,-0.10843 0,0 -0.2740842,-0.24096 -0.2891448,-0.28011 z m 5.6082084,-1.90957 c 0.05421,-0.0452 0.06626,-0.70177 0.06626,-4.30705 v -4.25284 l -0.153607,-0.0331 c -0.198788,-0.0451 -12.76454967,-0.0451 -12.96333687,0 l -0.1536073,0.0331 v 4.25284 c 0,3.49384 0.012043,4.26188 0.06325,4.30405 0.087346,0.0662 1.98184877,0.0813 8.04787137,0.0662 3.7468378,-0.009 5.0419668,-0.027 5.0931698,-0.0632 z"
       style="fill:#4d4d4d;fill-opacity:1;fill-rule:nonzero;stroke:#4d4d4d;stroke-width:0.1957753px;stroke-linecap:square;stroke-linejoin:round;stroke-miterlimit:4;stroke-dasharray:none;stroke-opacity:1"
       inkscape:connector-curvature="0" />
    <path
       id="path1608"
       d="m 21.940684,286.23266 c -0.190969,-0.15804 -0.372058,-0.30621 -0.553149,-0.45437 -0.06255,-0.056 -0.03292,-0.0954 0.0099,-0.14489 0.302914,-0.37204 0.605828,-0.74739 0.912035,-1.11946 0.289744,-0.349 0.543268,-0.72105 0.688143,-1.15238 0.102069,-0.3128 0.187674,-0.6223 0.09878,-0.96142 -0.0823,-0.31938 -0.293035,-0.52022 -0.556439,-0.67827 -0.38852,-0.23377 -0.80338,-0.40497 -1.251165,-0.55644 0.05926,-0.0165 0.111943,-0.0428 0.171213,-0.056 0.414859,-0.0889 0.823133,-0.0329 1.221532,0.0691 0.833009,0.21731 1.537617,0.6585 2.166489,1.2314 0.220599,0.20084 0.368764,0.4412 0.477419,0.71448 0.102069,0.25352 0.286454,0.37864 0.549859,0.38193 0.161335,0 0.269988,0.0724 0.378638,0.17451 0.266699,0.24365 0.266699,0.24036 0.03295,0.52352 -0.20743,0.24694 -0.414858,0.49058 -0.618997,0.74411 -0.06255,0.0758 -0.115238,0.0954 -0.19426,0.0231 -0.05926,-0.056 -0.121825,-0.10539 -0.187674,-0.14817 -0.144869,-0.0889 -0.223895,-0.21072 -0.256819,-0.37864 -0.06255,-0.2634 -0.289745,-0.34242 -0.510343,-0.41157 -0.335839,-0.1021 -0.615703,-0.0198 -0.865938,0.23705 -0.566317,0.56303 -1.066783,1.17874 -1.56725,1.79774 -0.0461,0.0493 -0.0889,0.0988 -0.144871,0.16462 z"
       style="fill:#d44250;fill-opacity:1;fill-rule:nonzero;stroke:none;stroke-width:0.0411571"
       inkscape:connector-curvature="0" />
    <path
       id="path1610"
       d="m 16.801024,292.06704 c -0.487296,-0.22719 -0.665094,-0.69144 -0.434616,-1.1491 0.03951,-0.0758 0.09878,-0.14487 0.161335,-0.20743 1.471767,-1.53431 2.946826,-3.05877 4.421885,-4.5865 0.174504,-0.18439 0.128409,-0.21073 0.355593,-0.0198 0.121825,0.10866 0.246943,0.21731 0.37206,0.31608 0.09549,0.0692 0.102069,0.12513 0.02304,0.2239 -0.388521,0.49388 -0.770454,0.99765 -1.155682,1.49482 -0.935082,1.19519 -1.873458,2.39698 -2.81183,3.59216 -0.0889,0.11199 -0.194262,0.21402 -0.309501,0.29633 -0.197551,0.13499 -0.414859,0.15476 -0.622291,0.0395 z"
       style="fill:#d44250;fill-opacity:1;fill-rule:nonzero;stroke:none;stroke-width:0.0411571"
       inkscape:connector-curvature="0" />
    <path
       id="path1612"
       d="m 13.485704,295.96051 c -0.599373,-0.18373 -0.795149,-0.30722 -1.24995,-0.77708 -0.325288,-0.33734 -0.67166,-0.83732 -0.864423,-1.25597 l -0.325289,-0.69576 -0.478895,0.0572 c -0.331313,0.0422 -0.8102097,0.11446 -1.1415216,0.003 -0.1355365,-0.0482 -0.2801089,-0.0723 -0.3855261,-0.16868 -0.099389,-0.0904 -0.2349312,-0.34336 -0.2349312,-0.34336 -0.3343236,-0.39757 -0.030123,-0.81623 0.2680627,-0.91262 0.1626433,-0.0512 0.1987872,-0.12047 0.1445724,-0.28612 -0.066263,-0.21987 -0.3584203,-0.72287 -0.4999804,-1.2861 -0.1536084,-0.59937 -0.1566207,-1.26199 -0.1475847,-1.56318 0.00298,-0.0211 0.012043,-0.34036 0.048193,-0.47589 0.1867389,-0.7319 0.6114212,-1.74993 1.0903172,-2.38846 0.6084097,-0.81322 4.3401877,-5.11124 5.7768767,-5.74977 2.731819,-1.21683 4.135377,1.93366 4.069115,2.06016 -0.138549,0.253 -0.147584,0.73792 -0.117466,1.73486 0.0241,0.76203 0.03314,0.96382 -0.0091,1.18068 -0.03614,0.1747 -0.08735,0.35542 -0.319264,0.8584 -0.349383,0.76503 1.165616,1.63548 1.3885,1.85836 0.183726,0.18675 0.168668,0.32227 -0.07831,0.67166 -0.168666,0.23794 -0.394562,0.46986 -0.499979,0.51202 -0.240955,0.0964 -0.334324,0.0723 -0.76503,0.0151 -0.427692,-0.0572 -1.433678,-0.97586 -1.840286,-1.2379 l -0.792139,1.06623 -0.307215,0.5331 c -0.268062,0.46685 -0.298182,0.58733 -0.225894,0.9578 0.04518,0.23192 0.08433,0.75901 0.08735,1.16863 l -0.01506,0.43973 c -0.04217,0.0994 -0.08735,0.19879 -0.129513,0.29819 l -0.412635,0.54515 -0.557207,0.53914 0.316252,0.0632 c 0.174693,0.0361 0.484921,0.01 0.819244,0.01 0.554196,0 0.801174,0.12349 1.117427,0.43974 0.358418,0.35841 0.352394,0.47588 0.189751,0.73189 -0.07831,0.12049 -0.3283,0.15361 -1.174653,0.15361 -0.731898,0 -0.927673,0.0633 -1.01803,0.0723 -0.02108,0.003 -0.05421,-0.012 -0.05421,0 -0.003,0.0241 0.04819,0.0964 0.06024,0.13253 0.03314,0.11143 0.08735,0.39455 0.117465,0.63251 0.05421,0.39455 0.03614,0.43672 -0.213846,0.5331 -0.400587,0.1506 -0.831292,0.11746 -1.635477,-0.1265 z"
       style="fill:#7c7c7c;fill-opacity:1;fill-rule:nonzero;stroke:none;stroke-width:0.03764938"
       inkscape:connector-curvature="0" />
    <path
       id="path1614"
       d="m 15.036846,280.45811 c 0.09939,-0.0542 0.560218,-0.56021 0.617445,-0.6325 0.05722,-0.0753 0.283122,-0.25602 0.307217,-0.43974 0.02108,-0.18675 0.04819,-0.33733 0.06024,-0.41263 0.03012,-0.23192 -0.180715,-0.35843 -0.442752,-0.32831 -0.292158,0.0301 -1.271035,-0.003 -1.734871,-0.13252 -0.183728,-0.0512 -0.587326,-0.19879 -0.587326,-0.19879 -0.430706,-0.10842 -1.301153,-0.3795 -1.424642,-0.43974 -0.123489,-0.0572 -0.852375,-0.43974 -0.966828,-0.49998 -0.243966,-0.12348 -0.334323,-0.74696 0.05722,-0.81021 0,0 0.105416,-0.0904 0.301193,-0.11746 0.352396,-0.0481 0.813221,-0.13253 0.942734,-0.15361 0.4548,-0.0783 1.120436,-0.13855 1.936668,0.0272 0.725875,0.14457 1.728847,0.58732 1.837277,0.64154 0.231918,0.11144 0.469861,0.22289 0.533112,0.24397 0.06024,0.0241 0.180715,0.0693 0.265048,0.10243 0.08735,0.0362 0.153608,0.0391 0.153608,0.009 0,-0.0272 0.07831,-0.1265 0.177704,-0.21686 0.153609,-0.14457 0.165657,-0.17469 0.09638,-0.253 -0.168667,-0.18673 -0.436729,-0.61443 -0.638527,-0.84032 -0.06024,-0.0693 -0.159633,-0.21987 -0.216859,-0.33132 -0.06024,-0.11144 -0.765031,-1.40657 -0.873459,-1.60836 -0.01205,-0.0272 -0.192765,-0.54215 -0.204812,-0.55722 -0.07831,-0.20179 -0.114453,-0.97887 -0.04518,-1.35235 0.05121,-0.27709 0.698766,-0.46083 1.04815,-0.15059 0,0 0.82828,0.90056 1.325249,1.56318 0.240954,0.31927 0.539135,0.79214 0.638528,0.90057 0.02711,0.0301 0.144573,0.14457 0.216859,0.2771 0.06928,0.13253 0.379503,0.87345 0.394563,0.98791 0.05121,0.34035 0.04217,0.74696 0.304205,0.94574 0.388539,0.29518 1.237901,0.56926 1.40958,0.65962 1.126054,1.1097 2.084028,1.26193 1.900527,2.6776 -0.171679,0.24397 -0.728885,0.61745 -0.903577,0.65661 -0.0241,0.006 -0.819244,0.21384 -1.361391,0.62948 -0.533113,0.40963 -0.725875,1.17467 -0.710816,1.56319 0.03614,0.90961 -4.578129,-2.31616 -4.412474,-2.40953 z"
       style="fill:#7c7c7c;fill-opacity:1;fill-rule:nonzero;stroke:none;stroke-width:0.03764938"
       inkscape:connector-curvature="0"
       sodipodi:nodetypes="ccccccccccccccccscccccccccccccccccccc" />
  </g>
</svg>
